<svg width="386" height="60" viewBox="0 0 386 60" fill="none" xmlns="http://www.w3.org/2000/svg">
<rect x="1.5" y="1.5" width="383" height="57" rx="8.5" stroke="url(#paint0_linear_246_31)" stroke-width="3"/>
<path d="M39.1406 48.2969L41.1406 38.7969H42.9531C43.849 37.5365 44.7396 36.151 45.625 34.6406C46.5104 33.1198 47.3594 31.5156 48.1719 29.8281C48.9948 28.1302 49.7552 26.3802 50.4531 24.5781C51.1615 22.776 51.7812 20.9688 52.3125 19.1562H62.9219L58.7656 38.7969H61.6406L59.625 48.2969H56L57.3438 42H44.0781L42.7188 48.2969H39.1406ZM47.0938 38.7969H54.9688L58.4844 22.3594H54.8125C54.4375 23.526 53.9688 24.8229 53.4062 26.25C52.8542 27.6667 52.2344 29.125 51.5469 30.625C50.8594 32.125 50.1354 33.5781 49.375 34.9844C48.625 36.3906 47.8646 37.6615 47.0938 38.7969ZM74.1875 42.3125C72.3438 42.3125 70.7917 41.9531 69.5312 41.2344C68.2812 40.5052 67.3333 39.4792 66.6875 38.1562C66.0521 36.8333 65.7344 35.2865 65.7344 33.5156C65.7344 32.2656 65.8438 31.0417 66.0625 29.8438C66.2917 28.6354 66.625 27.4844 67.0625 26.3906C67.5 25.2969 68.0469 24.2865 68.7031 23.3594C69.3698 22.4323 70.1406 21.6302 71.0156 20.9531C71.8906 20.2656 72.8698 19.7344 73.9531 19.3594C75.0469 18.9844 76.2396 18.7969 77.5312 18.7969C80.1979 18.7969 82.2396 19.5833 83.6562 21.1562C85.0833 22.7292 85.7969 24.8646 85.7969 27.5625C85.7969 28.8125 85.6927 30.0469 85.4844 31.2656C85.2865 32.474 84.974 33.6302 84.5469 34.7344C84.1302 35.8281 83.6042 36.8385 82.9688 37.7656C82.3333 38.6823 81.5833 39.4792 80.7188 40.1562C79.8646 40.8333 78.8906 41.3646 77.7969 41.75C76.7135 42.125 75.5104 42.3125 74.1875 42.3125ZM74.4062 39.1094C75.1667 39.1094 75.8802 38.974 76.5469 38.7031C77.2135 38.4323 77.8229 38.0521 78.375 37.5625C78.9375 37.0625 79.4375 36.4635 79.875 35.7656C80.3229 35.0677 80.6979 34.2917 81 33.4375C81.3125 32.5833 81.5521 31.6667 81.7188 30.6875C81.8854 29.6979 81.9688 28.6667 81.9688 27.5938C81.9688 25.8542 81.5573 24.4844 80.7344 23.4844C79.9219 22.4844 78.7604 21.9844 77.25 21.9844C76.4688 21.9844 75.7344 22.125 75.0469 22.4062C74.3698 22.6771 73.7448 23.0729 73.1719 23.5938C72.599 24.1042 72.0885 24.7135 71.6406 25.4219C71.2031 26.1198 70.8281 26.8958 70.5156 27.75C70.2031 28.6042 69.9635 29.5156 69.7969 30.4844C69.6406 31.4427 69.5625 32.4427 69.5625 33.4844C69.5625 34.6719 69.75 35.6875 70.125 36.5312C70.5104 37.375 71.0625 38.0156 71.7812 38.4531C72.5104 38.8906 73.3854 39.1094 74.4062 39.1094ZM87.9062 42L92.7344 19.1562H104.938L104.266 22.3125H95.75L94.4688 28.3906H96.2188C97.9792 28.3906 99.3906 28.651 100.453 29.1719C101.516 29.6823 102.286 30.3906 102.766 31.2969C103.245 32.2031 103.484 33.2396 103.484 34.4062C103.484 35.6979 103.266 36.8177 102.828 37.7656C102.391 38.7135 101.76 39.5 100.938 40.125C100.125 40.75 99.151 41.2188 98.0156 41.5312C96.8802 41.8438 95.6094 42 94.2031 42H87.9062ZM92.2344 38.875H94.5469C95.7552 38.875 96.7344 38.7031 97.4844 38.3594C98.2448 38.0156 98.8073 37.526 99.1719 36.8906C99.5365 36.2448 99.7188 35.4896 99.7188 34.625C99.7188 33.5312 99.4062 32.7448 98.7812 32.2656C98.1667 31.776 97.276 31.5312 96.1094 31.5312H93.8125L92.2344 38.875ZM103.484 42L115.734 19.1562H120.031L122.625 42H119L118.359 35.6406H110.719L107.438 42H103.484ZM112.328 32.4219H118.109L117.594 26.8125C117.542 26.1146 117.484 25.3802 117.422 24.6094C117.359 23.8281 117.328 23.0885 117.328 22.3906H117.234C116.974 23.0677 116.672 23.7708 116.328 24.5C115.984 25.2188 115.615 25.9583 115.219 26.7188L112.328 32.4219ZM125.469 42L130.297 19.1562H136.578C138.016 19.1562 139.255 19.3333 140.297 19.6875C141.339 20.0417 142.141 20.5938 142.703 21.3438C143.276 22.0938 143.562 23.0729 143.562 24.2812C143.562 25.3125 143.354 26.2292 142.938 27.0312C142.531 27.8229 141.948 28.4792 141.188 29C140.438 29.5104 139.536 29.8698 138.484 30.0781V30.2188C139.536 30.5 140.391 31.0208 141.047 31.7812C141.703 32.5312 142.031 33.5104 142.031 34.7188C142.031 36.3646 141.641 37.7292 140.859 38.8125C140.089 39.8854 139.031 40.6875 137.688 41.2188C136.354 41.7396 134.833 42 133.125 42H125.469ZM129.828 38.8594H133.328C134.328 38.8594 135.193 38.7031 135.922 38.3906C136.661 38.0781 137.229 37.6146 137.625 37C138.031 36.3854 138.234 35.6302 138.234 34.7344C138.234 33.7865 137.938 33.026 137.344 32.4531C136.76 31.8802 135.823 31.5938 134.531 31.5938H131.375L129.828 38.8594ZM132 28.5781H135.125C136.01 28.5781 136.797 28.4531 137.484 28.2031C138.182 27.9427 138.729 27.5469 139.125 27.0156C139.531 26.474 139.734 25.7865 139.734 24.9531C139.734 24.0781 139.453 23.4115 138.891 22.9531C138.339 22.4948 137.453 22.2656 136.234 22.2656H133.344L132 28.5781ZM145 42L149.828 19.1562H153.281L150.719 31.1719C150.594 31.7448 150.448 32.3854 150.281 33.0938C150.125 33.7917 149.969 34.474 149.812 35.1406C149.656 35.7969 149.521 36.349 149.406 36.7969H149.516L162.891 19.1562H167.312L162.484 42H159.078L161.625 29.9688C161.771 29.3125 161.917 28.6458 162.062 27.9688C162.208 27.2812 162.354 26.6094 162.5 25.9531C162.656 25.2865 162.807 24.6615 162.953 24.0781L162.859 24.0469L149.453 42H145ZM171.734 42L175.891 22.3438H169.953L170.625 19.1562H186.219L185.562 22.3438H179.609L175.453 42H171.734ZM184.781 42L189.609 19.1562H193.312L191.344 28.3906H193.031C194.802 28.3906 196.219 28.651 197.281 29.1719C198.344 29.6823 199.109 30.3906 199.578 31.2969C200.057 32.2031 200.297 33.2396 200.297 34.4062C200.297 35.6979 200.078 36.8177 199.641 37.7656C199.203 38.7135 198.578 39.5 197.766 40.125C196.953 40.75 195.974 41.2188 194.828 41.5312C193.693 41.8438 192.422 42 191.016 42H184.781ZM189.141 38.875H191.359C192.266 38.875 193.042 38.776 193.688 38.5781C194.333 38.3802 194.865 38.099 195.281 37.7344C195.708 37.3594 196.021 36.9115 196.219 36.3906C196.427 35.8698 196.531 35.2812 196.531 34.625C196.531 33.5312 196.219 32.7448 195.594 32.2656C194.979 31.776 194.094 31.5312 192.938 31.5312H190.703L189.141 38.875ZM208.516 42L220.766 19.1562H225.062L227.656 42H224.031L223.391 35.6406H215.75L212.469 42H208.516ZM217.359 32.4219H223.141L222.625 26.8125C222.573 26.1146 222.516 25.3802 222.453 24.6094C222.391 23.8281 222.359 23.0885 222.359 22.3906H222.266C222.005 23.0677 221.703 23.7708 221.359 24.5C221.016 25.2188 220.646 25.9583 220.25 26.7188L217.359 32.4219ZM226.547 48.2969L228.547 38.7969H230.359C231.255 37.5365 232.146 36.151 233.031 34.6406C233.917 33.1198 234.766 31.5156 235.578 29.8281C236.401 28.1302 237.161 26.3802 237.859 24.5781C238.568 22.776 239.188 20.9688 239.719 19.1562H250.328L246.172 38.7969H249.047L247.031 48.2969H243.406L244.75 42H231.484L230.125 48.2969H226.547ZM234.5 38.7969H242.375L245.891 22.3594H242.219C241.844 23.526 241.375 24.8229 240.812 26.25C240.26 27.6667 239.641 29.125 238.953 30.625C238.266 32.125 237.542 33.5781 236.781 34.9844C236.031 36.3906 235.271 37.6615 234.5 38.7969ZM252.078 42L256.906 19.1562H261.922L263.625 37.1719H263.75L273.266 19.1562H278.594L273.797 42H270.281L272.922 29.5C273.089 28.7083 273.266 27.9219 273.453 27.1406C273.641 26.349 273.823 25.599 274 24.8906C274.188 24.1823 274.354 23.5625 274.5 23.0312H274.391L264.328 42H261.094L259.312 23.0312H259.188C259.146 23.4792 259.068 24.0625 258.953 24.7812C258.839 25.5 258.708 26.276 258.562 27.1094C258.417 27.9323 258.26 28.7344 258.094 29.5156L255.469 42H252.078ZM279.562 42L284.391 19.1562H287.844L285.281 31.1719C285.156 31.7448 285.01 32.3854 284.844 33.0938C284.688 33.7917 284.531 34.474 284.375 35.1406C284.219 35.7969 284.083 36.349 283.969 36.7969H284.078L297.453 19.1562H301.875L297.047 42H293.641L296.188 29.9688C296.333 29.3125 296.479 28.6458 296.625 27.9688C296.771 27.2812 296.917 26.6094 297.062 25.9531C297.219 25.2865 297.37 24.6615 297.516 24.0781L297.422 24.0469L284.016 42H279.562ZM302.859 42L307.688 19.1562H311.391L309.406 28.5H318.312L320.281 19.1562H323.969L319.141 42H315.438L317.625 31.6875H308.734L306.547 42H302.859ZM321.984 42L334.234 19.1562H338.531L341.125 42H337.5L336.859 35.6406H329.219L325.938 42H321.984ZM330.828 32.4219H336.609L336.094 26.8125C336.042 26.1146 335.984 25.3802 335.922 24.6094C335.859 23.8281 335.828 23.0885 335.828 22.3906H335.734C335.474 23.0677 335.172 23.7708 334.828 24.5C334.484 25.2188 334.115 25.9583 333.719 26.7188L330.828 32.4219Z" fill="white"/>
<defs>
<linearGradient id="paint0_linear_246_31" x1="0" y1="30" x2="386" y2="30" gradientUnits="userSpaceOnUse">
<stop stop-color="#CD07FF"/>
<stop offset="1" stop-color="#00D7D7"/>
</linearGradient>
</defs>
</svg>
