<svg width="386" height="60" viewBox="0 0 386 60" fill="none" xmlns="http://www.w3.org/2000/svg">
<rect x="1.5" y="1.5" width="383" height="57" rx="8.5" fill="url(#paint0_radial_246_28)" stroke="#B50303" stroke-width="3"/>
<path d="M56.1875 42.3125C55.6979 42.3125 55.1771 42.2656 54.625 42.1719C54.0729 42.0885 53.6094 41.9792 53.2344 41.8438V38.4688C53.6615 38.6667 54.1198 38.8177 54.6094 38.9219C55.099 39.026 55.5833 39.0781 56.0625 39.0781C56.5938 39.0781 57.0677 38.9948 57.4844 38.8281C57.9115 38.6615 58.3021 38.4219 58.6562 38.1094C59.0104 37.7969 59.349 37.4167 59.6719 36.9688C60.0052 36.5208 60.3438 36.0208 60.6875 35.4688L56.0469 19.1562H59.7656L62.4219 29.3281C62.5052 29.6406 62.5885 29.9792 62.6719 30.3438C62.7656 30.6979 62.8542 31.0625 62.9375 31.4375C63.0208 31.8125 63.0885 32.1823 63.1406 32.5469C63.3698 32.026 63.6042 31.5156 63.8438 31.0156C64.0833 30.5052 64.3281 30.0417 64.5781 29.625L70.5469 19.1562H74.6406L64.5938 35.8438C63.7188 37.3125 62.8854 38.526 62.0938 39.4844C61.3021 40.4323 60.4427 41.1406 59.5156 41.6094C58.5885 42.0781 57.4792 42.3125 56.1875 42.3125ZM68.8594 48.2969L70.8594 38.7969H72.6719C73.5677 37.5365 74.4583 36.151 75.3438 34.6406C76.2292 33.1198 77.0781 31.5156 77.8906 29.8281C78.7135 28.1302 79.474 26.3802 80.1719 24.5781C80.8802 22.776 81.5 20.9688 82.0312 19.1562H92.6406L88.4844 38.7969H91.3594L89.3438 48.2969H85.7188L87.0625 42H73.7969L72.4375 48.2969H68.8594ZM76.8125 38.7969H84.6875L88.2031 22.3594H84.5312C84.1562 23.526 83.6875 24.8229 83.125 26.25C82.5729 27.6667 81.9531 29.125 81.2656 30.625C80.5781 32.125 79.8542 33.5781 79.0938 34.9844C78.3438 36.3906 77.5833 37.6615 76.8125 38.7969ZM91.4531 42L103.703 19.1562H108L110.594 42H106.969L106.328 35.6406H98.6875L95.4062 42H91.4531ZM100.297 32.4219H106.078L105.562 26.8125C105.51 26.1146 105.453 25.3802 105.391 24.6094C105.328 23.8281 105.297 23.0885 105.297 22.3906H105.203C104.943 23.0677 104.641 23.7708 104.297 24.5C103.953 25.2188 103.583 25.9583 103.188 26.7188L100.297 32.4219ZM113.422 42.3281C112.995 42.3281 112.604 42.2917 112.25 42.2188C111.896 42.1458 111.594 42.0625 111.344 41.9688V38.8281C111.573 38.9115 111.818 38.9844 112.078 39.0469C112.339 39.1094 112.62 39.1406 112.922 39.1406C113.474 39.1406 113.979 39.0208 114.438 38.7812C114.896 38.5312 115.339 38.0781 115.766 37.4219C116.193 36.7552 116.635 35.8021 117.094 34.5625C117.427 33.6875 117.776 32.6823 118.141 31.5469C118.505 30.401 118.88 29.1615 119.266 27.8281C119.661 26.4948 120.057 25.099 120.453 23.6406C120.859 22.1719 121.26 20.6771 121.656 19.1562H134L129.125 42H125.438L129.609 22.3594H124.438C124.208 23.2656 123.964 24.1979 123.703 25.1562C123.443 26.1146 123.177 27.0729 122.906 28.0312C122.635 28.9896 122.359 29.9219 122.078 30.8281C121.807 31.7344 121.542 32.5938 121.281 33.4062C121.021 34.2083 120.771 34.9375 120.531 35.5938C119.938 37.1875 119.323 38.4792 118.688 39.4688C118.062 40.4583 117.333 41.1823 116.5 41.6406C115.667 42.099 114.641 42.3281 113.422 42.3281ZM134.938 42L139.766 19.1562H143.219L140.656 31.1719C140.531 31.7448 140.385 32.3854 140.219 33.0938C140.062 33.7917 139.906 34.474 139.75 35.1406C139.594 35.7969 139.458 36.349 139.344 36.7969H139.453L152.828 19.1562H157.25L152.422 42H149.016L151.562 29.9688C151.708 29.3125 151.854 28.6458 152 27.9688C152.146 27.2812 152.292 26.6094 152.438 25.9531C152.594 25.2865 152.745 24.6615 152.891 24.0781L152.797 24.0469L139.391 42H134.938ZM161.672 42L165.828 22.3438H159.891L160.562 19.1562H176.156L175.5 22.3438H169.547L165.391 42H161.672ZM174.719 42L179.547 19.1562H183.25L181.281 28.3906H182.969C184.74 28.3906 186.156 28.651 187.219 29.1719C188.281 29.6823 189.047 30.3906 189.516 31.2969C189.995 32.2031 190.234 33.2396 190.234 34.4062C190.234 35.6979 190.016 36.8177 189.578 37.7656C189.141 38.7135 188.516 39.5 187.703 40.125C186.891 40.75 185.911 41.2188 184.766 41.5312C183.63 41.8438 182.359 42 180.953 42H174.719ZM179.078 38.875H181.297C182.203 38.875 182.979 38.776 183.625 38.5781C184.271 38.3802 184.802 38.099 185.219 37.7344C185.646 37.3594 185.958 36.9115 186.156 36.3906C186.365 35.8698 186.469 35.2812 186.469 34.625C186.469 33.5312 186.156 32.7448 185.531 32.2656C184.917 31.776 184.031 31.5312 182.875 31.5312H180.641L179.078 38.875ZM198.453 42L210.703 19.1562H215L217.594 42H213.969L213.328 35.6406H205.688L202.406 42H198.453ZM207.297 32.4219H213.078L212.562 26.8125C212.51 26.1146 212.453 25.3802 212.391 24.6094C212.328 23.8281 212.297 23.0885 212.297 22.3906H212.203C211.943 23.0677 211.641 23.7708 211.297 24.5C210.953 25.2188 210.583 25.9583 210.188 26.7188L207.297 32.4219ZM216.484 48.2969L218.484 38.7969H220.297C221.193 37.5365 222.083 36.151 222.969 34.6406C223.854 33.1198 224.703 31.5156 225.516 29.8281C226.339 28.1302 227.099 26.3802 227.797 24.5781C228.505 22.776 229.125 20.9688 229.656 19.1562H240.266L236.109 38.7969H238.984L236.969 48.2969H233.344L234.688 42H221.422L220.062 48.2969H216.484ZM224.438 38.7969H232.312L235.828 22.3594H232.156C231.781 23.526 231.312 24.8229 230.75 26.25C230.198 27.6667 229.578 29.125 228.891 30.625C228.203 32.125 227.479 33.5781 226.719 34.9844C225.969 36.3906 225.208 37.6615 224.438 38.7969ZM242.016 42L246.844 19.1562H251.859L253.562 37.1719H253.688L263.203 19.1562H268.531L263.734 42H260.219L262.859 29.5C263.026 28.7083 263.203 27.9219 263.391 27.1406C263.578 26.349 263.76 25.599 263.938 24.8906C264.125 24.1823 264.292 23.5625 264.438 23.0312H264.328L254.266 42H251.031L249.25 23.0312H249.125C249.083 23.4792 249.005 24.0625 248.891 24.7812C248.776 25.5 248.646 26.276 248.5 27.1094C248.354 27.9323 248.198 28.7344 248.031 29.5156L245.406 42H242.016ZM269.5 42L274.328 19.1562H277.781L275.219 31.1719C275.094 31.7448 274.948 32.3854 274.781 33.0938C274.625 33.7917 274.469 34.474 274.312 35.1406C274.156 35.7969 274.021 36.349 273.906 36.7969H274.016L287.391 19.1562H291.812L286.984 42H283.578L286.125 29.9688C286.271 29.3125 286.417 28.6458 286.562 27.9688C286.708 27.2812 286.854 26.6094 287 25.9531C287.156 25.2865 287.307 24.6615 287.453 24.0781L287.359 24.0469L273.953 42H269.5ZM292.797 42L297.625 19.1562H301.328L299.344 28.5H308.25L310.219 19.1562H313.906L309.078 42H305.375L307.562 31.6875H298.672L296.484 42H292.797ZM311.922 42L324.172 19.1562H328.469L331.062 42H327.438L326.797 35.6406H319.156L315.875 42H311.922ZM320.766 32.4219H326.547L326.031 26.8125C325.979 26.1146 325.922 25.3802 325.859 24.6094C325.797 23.8281 325.766 23.0885 325.766 22.3906H325.672C325.411 23.0677 325.109 23.7708 324.766 24.5C324.422 25.2188 324.052 25.9583 323.656 26.7188L320.766 32.4219Z" fill="white"/>
<defs>
<radialGradient id="paint0_radial_246_28" cx="0" cy="0" r="1" gradientUnits="userSpaceOnUse" gradientTransform="translate(193 30) scale(193 30)">
<stop stop-color="#D9D9D9" stop-opacity="0"/>
<stop offset="1" stop-color="#B50303" stop-opacity="0.2"/>
</radialGradient>
</defs>
</svg>
