<svg width="81" height="111" viewBox="0 0 81 111" fill="none" xmlns="http://www.w3.org/2000/svg">
<path d="M23.1562 107.531H12.75V111H23.1562V107.531Z" fill="white"/>
<path d="M68.3097 107.531H57.9033V111H68.3097V107.531Z" fill="white"/>
<path d="M45.7033 107.531H35.2971V111H45.7033V107.531Z" fill="white"/>
<path d="M68.2502 57.2342H75.1875C78.0567 57.2342 80.3908 54.9001 80.3908 52.0311C80.3908 49.162 78.0567 46.8278 75.1875 46.8278H68.2502C65.3811 46.8278 63.0469 49.162 63.0469 52.0311V65.906H59.5783V9.65445C59.5783 4.33101 55.247 0 49.9236 0H31.0764C25.753 0 21.422 4.33101 21.422 9.65445V65.906H17.9531V52.0311C17.9531 49.162 15.6189 46.8278 12.75 46.8278H5.81246C2.94353 46.8278 0.609375 49.162 0.609375 52.0311C0.609375 54.9001 2.94353 57.2342 5.81246 57.2342H12.75C13.3581 57.2342 13.9415 57.1283 14.4844 56.9358V65.906H13.6173C9.31369 65.906 5.81269 69.4074 5.81269 73.7108C5.81269 78.0142 9.31369 81.5154 13.6173 81.5154H32.0028C32.6943 84.9083 35.3728 87.587 38.7659 88.2786V97.1247H16.1612V105.797H19.6298V100.594H38.7659V105.797H42.2345V100.594H61.3127V105.797H64.7816V97.1247H42.2348V88.2786C45.6276 87.587 48.3063 84.9085 48.9977 81.5154H67.3831C71.6865 81.5154 75.188 78.0142 75.188 73.7108C75.188 69.4074 71.6865 65.906 67.3831 65.906H66.516V56.9358C67.0587 57.1286 67.6421 57.2342 68.2502 57.2342ZM24.8906 9.65445C24.8906 6.24348 27.6657 3.46865 31.0764 3.46865H49.9236C53.3343 3.46865 56.1094 6.24371 56.1094 9.65445V65.906H24.8906V9.65445ZM12.75 53.7653H5.81246C4.856 53.7653 4.07803 52.9876 4.07803 52.0311C4.07803 51.0747 4.856 50.2967 5.81246 50.2967H12.75C13.7065 50.2967 14.4844 51.0747 14.4844 52.0311C14.4844 52.9876 13.7065 53.7653 12.75 53.7653ZM40.5001 84.9841C38.239 84.9841 36.3112 83.534 35.5952 81.5154H45.4048C44.689 83.5342 42.7612 84.9841 40.5001 84.9841ZM67.3829 69.3751C69.7738 69.3748 71.7189 71.3199 71.7189 73.711C71.7189 76.1017 69.7738 78.0468 67.3829 78.0468H13.6173C11.2266 78.0468 9.28134 76.1017 9.28134 73.711C9.28134 71.3201 11.2266 69.3751 13.6173 69.3751H21.4222H59.5783H67.3829ZM66.5158 52.0313C66.5158 51.0749 67.2937 50.2969 68.2502 50.2969H75.1875C76.144 50.2969 76.922 51.0749 76.922 52.0313C76.922 52.9878 76.144 53.7656 75.1875 53.7656H68.2502C67.294 53.7656 66.5158 52.9878 66.5158 52.0313Z" fill="white"/>
<path d="M50.9063 15.6091H30.0938V19.078H50.9063V15.6091Z" fill="white"/>
<path d="M50.9063 39.8906H30.0938V43.3595H50.9063V39.8906Z" fill="white"/>
</svg>
