<svg width="51" height="50" viewBox="0 0 51 50" fill="none" xmlns="http://www.w3.org/2000/svg">
<g clip-path="url(#clip0_85_31)">
<path d="M48.5947 24C48.5947 30.3652 46.0627 36.4697 41.5555 40.9706C37.0484 45.4714 30.9354 48 24.5614 48C18.1874 48 12.0744 45.4714 7.56728 40.9706C3.06015 36.4697 0.528076 30.3652 0.528076 24C0.528076 17.6348 3.06015 11.5303 7.56728 7.02944C12.0744 2.52856 18.1874 0 24.5614 0C30.9354 0 37.0484 2.52856 41.5555 7.02944C46.0627 11.5303 48.5947 17.6348 48.5947 24V24ZM25.4236 17.718C23.0864 18.69 18.4119 20.7 11.4062 23.748C10.2706 24.198 9.67276 24.642 9.61868 25.074C9.52856 25.803 10.4448 26.091 11.6916 26.484L12.2173 26.649C13.443 27.048 15.0953 27.513 15.9515 27.531C16.7326 27.549 17.6008 27.231 18.5591 26.571C25.1052 22.158 28.4849 19.929 28.6951 19.881C28.8454 19.845 29.0556 19.803 29.1938 19.929C29.335 20.052 29.32 20.289 29.305 20.352C29.2149 20.739 25.6189 24.075 23.7593 25.803C23.1795 26.343 22.7679 26.724 22.6838 26.811C22.4986 27 22.3103 27.1861 22.119 27.369C20.9774 28.467 20.1243 29.289 22.1641 30.633C23.1464 31.281 23.9335 31.812 24.7176 32.346C25.5708 32.928 26.424 33.507 27.5295 34.233C27.8089 34.413 28.0793 34.608 28.3407 34.794C29.335 35.502 30.2333 36.138 31.3358 36.036C31.9787 35.976 32.6426 35.376 32.9791 33.576C33.7752 29.325 35.3404 20.118 35.7009 16.323C35.7229 16.0075 35.7098 15.6906 35.6618 15.378C35.6335 15.1258 35.5113 14.8934 35.3193 14.727C35.046 14.5386 34.7201 14.4409 34.388 14.448C33.4868 14.463 32.0959 14.946 25.4236 17.718V17.718Z" fill="white"/>
<path d="M48.5947 24C48.5947 30.3652 46.0627 36.4697 41.5555 40.9706C37.0484 45.4714 30.9354 48 24.5614 48C18.1874 48 12.0744 45.4714 7.56728 40.9706C3.06015 36.4697 0.528076 30.3652 0.528076 24C0.528076 17.6348 3.06015 11.5303 7.56728 7.02944C12.0744 2.52856 18.1874 0 24.5614 0C30.9354 0 37.0484 2.52856 41.5555 7.02944C46.0627 11.5303 48.5947 17.6348 48.5947 24V24ZM25.4236 17.718C23.0864 18.69 18.4119 20.7 11.4062 23.748C10.2706 24.198 9.67276 24.642 9.61868 25.074C9.52856 25.803 10.4448 26.091 11.6916 26.484L12.2173 26.649C13.443 27.048 15.0953 27.513 15.9515 27.531C16.7326 27.549 17.6008 27.231 18.5591 26.571C25.1052 22.158 28.4849 19.929 28.6951 19.881C28.8454 19.845 29.0556 19.803 29.1938 19.929C29.335 20.052 29.32 20.289 29.305 20.352C29.2149 20.739 25.6189 24.075 23.7593 25.803C23.1795 26.343 22.7679 26.724 22.6838 26.811C22.4986 27 22.3103 27.1861 22.119 27.369C20.9774 28.467 20.1243 29.289 22.1641 30.633C23.1464 31.281 23.9335 31.812 24.7176 32.346C25.5708 32.928 26.424 33.507 27.5295 34.233C27.8089 34.413 28.0793 34.608 28.3407 34.794C29.335 35.502 30.2333 36.138 31.3358 36.036C31.9787 35.976 32.6426 35.376 32.9791 33.576C33.7752 29.325 35.3404 20.118 35.7009 16.323C35.7229 16.0075 35.7098 15.6906 35.6618 15.378C35.6335 15.1258 35.5113 14.8934 35.3193 14.727C35.046 14.5386 34.7201 14.4409 34.388 14.448C33.4868 14.463 32.0959 14.946 25.4236 17.718V17.718Z" fill="black" fill-opacity="0.2"/>
</g>
<defs>
<clipPath id="clip0_85_31">
<rect width="50.0694" height="50" fill="white" transform="translate(0.52832)"/>
</clipPath>
</defs>
</svg>
