<svg width="51" height="48" viewBox="0 0 51 48" fill="none" xmlns="http://www.w3.org/2000/svg">
<path d="M25.5629 1C12.2895 1 1.52954 11.745 1.52954 25C1.52954 38.255 12.2895 49 25.5629 49C38.8363 49 49.5962 38.255 49.5962 25C49.5962 11.745 38.8363 1 25.5629 1ZM34.8057 28.0775C34.8057 28.0775 36.9311 30.1725 37.4544 31.145C37.4694 31.165 37.4769 31.185 37.4819 31.195C37.6947 31.5525 37.7448 31.83 37.6396 32.0375C37.4644 32.3825 36.8636 32.5525 36.6583 32.5675H32.9031C32.6427 32.5675 32.0969 32.5 31.436 32.045C30.9278 31.69 30.4271 31.1075 29.9389 30.54C29.2104 29.695 28.5796 28.965 27.9437 28.965C27.8629 28.9649 27.7826 28.9775 27.7059 29.0025C27.2252 29.1575 26.6093 29.8425 26.6093 31.6675C26.6093 32.2375 26.1587 32.565 25.8408 32.565H24.1209C23.5351 32.565 20.4833 32.36 17.7796 29.5125C14.47 26.025 11.4909 19.03 11.4658 18.965C11.2781 18.5125 11.6661 18.27 12.0892 18.27H15.8819C16.3877 18.27 16.5529 18.5775 16.668 18.85C16.8032 19.1675 17.2989 20.43 18.1125 21.85C19.4319 24.165 20.2405 25.105 20.8889 25.105C21.0105 25.1036 21.1299 25.0727 21.2369 25.015C22.0831 24.545 21.9253 21.5325 21.8878 20.9075C21.8878 20.79 21.8853 19.56 21.4522 18.97C21.1417 18.5425 20.6135 18.38 20.2931 18.32C20.4228 18.1413 20.5936 17.9964 20.7913 17.8975C21.3721 17.6075 22.4185 17.565 23.4575 17.565H24.0358C25.1623 17.58 25.4527 17.6525 25.8608 17.755C26.6869 17.9525 26.7045 18.485 26.6319 20.3075C26.6093 20.825 26.5868 21.41 26.5868 22.1C26.5868 22.25 26.5793 22.41 26.5793 22.58C26.5543 23.5075 26.5242 24.56 27.1801 24.9925C27.2657 25.0461 27.3645 25.0747 27.4655 25.075C27.6933 25.075 28.3793 25.075 30.2369 21.8925C30.8097 20.8681 31.3076 19.8037 31.7264 18.7075C31.764 18.6425 31.8741 18.4425 32.0043 18.365C32.1004 18.3161 32.2069 18.2912 32.3147 18.2925H36.7734C37.2591 18.2925 37.5921 18.365 37.6547 18.5525C37.7648 18.85 37.6346 19.7575 35.5993 22.51L34.6905 23.7075C32.8455 26.1225 32.8455 26.245 34.8057 28.0775V28.0775Z" fill="white"/>
<path d="M25.5629 1C12.2895 1 1.52954 11.745 1.52954 25C1.52954 38.255 12.2895 49 25.5629 49C38.8363 49 49.5962 38.255 49.5962 25C49.5962 11.745 38.8363 1 25.5629 1ZM34.8057 28.0775C34.8057 28.0775 36.9311 30.1725 37.4544 31.145C37.4694 31.165 37.4769 31.185 37.4819 31.195C37.6947 31.5525 37.7448 31.83 37.6396 32.0375C37.4644 32.3825 36.8636 32.5525 36.6583 32.5675H32.9031C32.6427 32.5675 32.0969 32.5 31.436 32.045C30.9278 31.69 30.4271 31.1075 29.9389 30.54C29.2104 29.695 28.5796 28.965 27.9437 28.965C27.8629 28.9649 27.7826 28.9775 27.7059 29.0025C27.2252 29.1575 26.6093 29.8425 26.6093 31.6675C26.6093 32.2375 26.1587 32.565 25.8408 32.565H24.1209C23.5351 32.565 20.4833 32.36 17.7796 29.5125C14.47 26.025 11.4909 19.03 11.4658 18.965C11.2781 18.5125 11.6661 18.27 12.0892 18.27H15.8819C16.3877 18.27 16.5529 18.5775 16.668 18.85C16.8032 19.1675 17.2989 20.43 18.1125 21.85C19.4319 24.165 20.2405 25.105 20.8889 25.105C21.0105 25.1036 21.1299 25.0727 21.2369 25.015C22.0831 24.545 21.9253 21.5325 21.8878 20.9075C21.8878 20.79 21.8853 19.56 21.4522 18.97C21.1417 18.5425 20.6135 18.38 20.2931 18.32C20.4228 18.1413 20.5936 17.9964 20.7913 17.8975C21.3721 17.6075 22.4185 17.565 23.4575 17.565H24.0358C25.1623 17.58 25.4527 17.6525 25.8608 17.755C26.6869 17.9525 26.7045 18.485 26.6319 20.3075C26.6093 20.825 26.5868 21.41 26.5868 22.1C26.5868 22.25 26.5793 22.41 26.5793 22.58C26.5543 23.5075 26.5242 24.56 27.1801 24.9925C27.2657 25.0461 27.3645 25.0747 27.4655 25.075C27.6933 25.075 28.3793 25.075 30.2369 21.8925C30.8097 20.8681 31.3076 19.8037 31.7264 18.7075C31.764 18.6425 31.8741 18.4425 32.0043 18.365C32.1004 18.3161 32.2069 18.2912 32.3147 18.2925H36.7734C37.2591 18.2925 37.5921 18.365 37.6547 18.5525C37.7648 18.85 37.6346 19.7575 35.5993 22.51L34.6905 23.7075C32.8455 26.1225 32.8455 26.245 34.8057 28.0775V28.0775Z" fill="black" fill-opacity="0.2"/>
</svg>
