<svg width="497" height="115" viewBox="0 0 497 115" fill="none" xmlns="http://www.w3.org/2000/svg">
<path d="M34 1.5H495.5V81C495.5 98.9493 480.949 113.5 463 113.5H1.5V34C1.5 16.0507 16.0507 1.5 34 1.5Z" fill="url(#paint0_linear_243_14)" stroke="url(#paint1_linear_243_14)" stroke-width="3"/>
<path d="M189.094 69L193.922 46.1562H206.094L205.422 49.3125H196.922L192.75 69H189.094ZM214.312 69.3125C212.469 69.3125 210.917 68.9531 209.656 68.2344C208.406 67.5052 207.458 66.4792 206.812 65.1562C206.177 63.8333 205.859 62.2865 205.859 60.5156C205.859 59.2656 205.969 58.0417 206.188 56.8438C206.417 55.6354 206.75 54.4844 207.188 53.3906C207.625 52.2969 208.172 51.2865 208.828 50.3594C209.495 49.4323 210.266 48.6302 211.141 47.9531C212.016 47.2656 212.995 46.7344 214.078 46.3594C215.172 45.9844 216.365 45.7969 217.656 45.7969C220.323 45.7969 222.365 46.5833 223.781 48.1562C225.208 49.7292 225.922 51.8646 225.922 54.5625C225.922 55.8125 225.818 57.0469 225.609 58.2656C225.411 59.474 225.099 60.6302 224.672 61.7344C224.255 62.8281 223.729 63.8385 223.094 64.7656C222.458 65.6823 221.708 66.4792 220.844 67.1562C219.99 67.8333 219.016 68.3646 217.922 68.75C216.839 69.125 215.635 69.3125 214.312 69.3125ZM214.531 66.1094C215.292 66.1094 216.005 65.974 216.672 65.7031C217.339 65.4323 217.948 65.0521 218.5 64.5625C219.062 64.0625 219.562 63.4635 220 62.7656C220.448 62.0677 220.823 61.2917 221.125 60.4375C221.438 59.5833 221.677 58.6667 221.844 57.6875C222.01 56.6979 222.094 55.6667 222.094 54.5938C222.094 52.8542 221.682 51.4844 220.859 50.4844C220.047 49.4844 218.885 48.9844 217.375 48.9844C216.594 48.9844 215.859 49.125 215.172 49.4062C214.495 49.6771 213.87 50.0729 213.297 50.5938C212.724 51.1042 212.214 51.7135 211.766 52.4219C211.328 53.1198 210.953 53.8958 210.641 54.75C210.328 55.6042 210.089 56.5156 209.922 57.4844C209.766 58.4427 209.688 59.4427 209.688 60.4844C209.688 61.6719 209.875 62.6875 210.25 63.5312C210.635 64.375 211.188 65.0156 211.906 65.4531C212.635 65.8906 213.51 66.1094 214.531 66.1094ZM231.484 69L235.641 49.3438H229.703L230.375 46.1562H245.969L245.312 49.3438H239.359L235.203 69H231.484ZM254.031 69.3125C252.188 69.3125 250.635 68.9531 249.375 68.2344C248.125 67.5052 247.177 66.4792 246.531 65.1562C245.896 63.8333 245.578 62.2865 245.578 60.5156C245.578 59.2656 245.688 58.0417 245.906 56.8438C246.135 55.6354 246.469 54.4844 246.906 53.3906C247.344 52.2969 247.891 51.2865 248.547 50.3594C249.214 49.4323 249.984 48.6302 250.859 47.9531C251.734 47.2656 252.714 46.7344 253.797 46.3594C254.891 45.9844 256.083 45.7969 257.375 45.7969C260.042 45.7969 262.083 46.5833 263.5 48.1562C264.927 49.7292 265.641 51.8646 265.641 54.5625C265.641 55.8125 265.536 57.0469 265.328 58.2656C265.13 59.474 264.818 60.6302 264.391 61.7344C263.974 62.8281 263.448 63.8385 262.812 64.7656C262.177 65.6823 261.427 66.4792 260.562 67.1562C259.708 67.8333 258.734 68.3646 257.641 68.75C256.557 69.125 255.354 69.3125 254.031 69.3125ZM254.25 66.1094C255.01 66.1094 255.724 65.974 256.391 65.7031C257.057 65.4323 257.667 65.0521 258.219 64.5625C258.781 64.0625 259.281 63.4635 259.719 62.7656C260.167 62.0677 260.542 61.2917 260.844 60.4375C261.156 59.5833 261.396 58.6667 261.562 57.6875C261.729 56.6979 261.812 55.6667 261.812 54.5938C261.812 52.8542 261.401 51.4844 260.578 50.4844C259.766 49.4844 258.604 48.9844 257.094 48.9844C256.312 48.9844 255.578 49.125 254.891 49.4062C254.214 49.6771 253.589 50.0729 253.016 50.5938C252.443 51.1042 251.932 51.7135 251.484 52.4219C251.047 53.1198 250.672 53.8958 250.359 54.75C250.047 55.6042 249.807 56.5156 249.641 57.4844C249.484 58.4427 249.406 59.4427 249.406 60.4844C249.406 61.6719 249.594 62.6875 249.969 63.5312C250.354 64.375 250.906 65.0156 251.625 65.4531C252.354 65.8906 253.229 66.1094 254.25 66.1094ZM267.75 69L272.578 46.1562H278.859C280.297 46.1562 281.536 46.3333 282.578 46.6875C283.62 47.0417 284.422 47.5938 284.984 48.3438C285.557 49.0938 285.844 50.0729 285.844 51.2812C285.844 52.3125 285.635 53.2292 285.219 54.0312C284.812 54.8229 284.229 55.4792 283.469 56C282.719 56.5104 281.818 56.8698 280.766 57.0781V57.2188C281.818 57.5 282.672 58.0208 283.328 58.7812C283.984 59.5312 284.312 60.5104 284.312 61.7188C284.312 63.3646 283.922 64.7292 283.141 65.8125C282.37 66.8854 281.312 67.6875 279.969 68.2188C278.635 68.7396 277.115 69 275.406 69H267.75ZM272.109 65.8594H275.609C276.609 65.8594 277.474 65.7031 278.203 65.3906C278.943 65.0781 279.51 64.6146 279.906 64C280.312 63.3854 280.516 62.6302 280.516 61.7344C280.516 60.7865 280.219 60.026 279.625 59.4531C279.042 58.8802 278.104 58.5938 276.812 58.5938H273.656L272.109 65.8594ZM274.281 55.5781H277.406C278.292 55.5781 279.078 55.4531 279.766 55.2031C280.464 54.9427 281.01 54.5469 281.406 54.0156C281.812 53.474 282.016 52.7865 282.016 51.9531C282.016 51.0781 281.734 50.4115 281.172 49.9531C280.62 49.4948 279.734 49.2656 278.516 49.2656H275.625L274.281 55.5781ZM296.781 69.3125C294.938 69.3125 293.385 68.9531 292.125 68.2344C290.875 67.5052 289.927 66.4792 289.281 65.1562C288.646 63.8333 288.328 62.2865 288.328 60.5156C288.328 59.2656 288.438 58.0417 288.656 56.8438C288.885 55.6354 289.219 54.4844 289.656 53.3906C290.094 52.2969 290.641 51.2865 291.297 50.3594C291.964 49.4323 292.734 48.6302 293.609 47.9531C294.484 47.2656 295.464 46.7344 296.547 46.3594C297.641 45.9844 298.833 45.7969 300.125 45.7969C302.792 45.7969 304.833 46.5833 306.25 48.1562C307.677 49.7292 308.391 51.8646 308.391 54.5625C308.391 55.8125 308.286 57.0469 308.078 58.2656C307.88 59.474 307.568 60.6302 307.141 61.7344C306.724 62.8281 306.198 63.8385 305.562 64.7656C304.927 65.6823 304.177 66.4792 303.312 67.1562C302.458 67.8333 301.484 68.3646 300.391 68.75C299.307 69.125 298.104 69.3125 296.781 69.3125ZM297 66.1094C297.76 66.1094 298.474 65.974 299.141 65.7031C299.807 65.4323 300.417 65.0521 300.969 64.5625C301.531 64.0625 302.031 63.4635 302.469 62.7656C302.917 62.0677 303.292 61.2917 303.594 60.4375C303.906 59.5833 304.146 58.6667 304.312 57.6875C304.479 56.6979 304.562 55.6667 304.562 54.5938C304.562 52.8542 304.151 51.4844 303.328 50.4844C302.516 49.4844 301.354 48.9844 299.844 48.9844C299.062 48.9844 298.328 49.125 297.641 49.4062C296.964 49.6771 296.339 50.0729 295.766 50.5938C295.193 51.1042 294.682 51.7135 294.234 52.4219C293.797 53.1198 293.422 53.8958 293.109 54.75C292.797 55.6042 292.557 56.5156 292.391 57.4844C292.234 58.4427 292.156 59.4427 292.156 60.4844C292.156 61.6719 292.344 62.6875 292.719 63.5312C293.104 64.375 293.656 65.0156 294.375 65.4531C295.104 65.8906 295.979 66.1094 297 66.1094Z" fill="white"/>
<defs>
<linearGradient id="paint0_linear_243_14" x1="0" y1="57.5" x2="497" y2="57.5" gradientUnits="userSpaceOnUse">
<stop stop-color="#00D7D7" stop-opacity="0.2"/>
<stop offset="1" stop-color="#CA0AFF" stop-opacity="0.2"/>
</linearGradient>
<linearGradient id="paint1_linear_243_14" x1="248.5" y1="0" x2="248.5" y2="115" gradientUnits="userSpaceOnUse">
<stop stop-color="#CD06FF"/>
<stop offset="1" stop-color="#00D7D7"/>
</linearGradient>
</defs>
</svg>
