<svg width="330" height="90" viewBox="0 0 330 90" fill="none" xmlns="http://www.w3.org/2000/svg">
<rect x="1.5" y="1.5" width="327" height="87" rx="28.5" fill="url(#paint0_radial_243_21)" stroke="#B50303" stroke-width="3"/>
<path d="M98.1875 57.3125C97.6979 57.3125 97.1771 57.2656 96.625 57.1719C96.0729 57.0885 95.6094 56.9792 95.2344 56.8438V53.4688C95.6615 53.6667 96.1198 53.8177 96.6094 53.9219C97.099 54.026 97.5833 54.0781 98.0625 54.0781C98.5938 54.0781 99.0677 53.9948 99.4844 53.8281C99.9115 53.6615 100.302 53.4219 100.656 53.1094C101.01 52.7969 101.349 52.4167 101.672 51.9688C102.005 51.5208 102.344 51.0208 102.688 50.4688L98.0469 34.1562H101.766L104.422 44.3281C104.505 44.6406 104.589 44.9792 104.672 45.3438C104.766 45.6979 104.854 46.0625 104.938 46.4375C105.021 46.8125 105.089 47.1823 105.141 47.5469C105.37 47.026 105.604 46.5156 105.844 46.0156C106.083 45.5052 106.328 45.0417 106.578 44.625L112.547 34.1562H116.641L106.594 50.8438C105.719 52.3125 104.885 53.526 104.094 54.4844C103.302 55.4323 102.443 56.1406 101.516 56.6094C100.589 57.0781 99.4792 57.3125 98.1875 57.3125ZM110.859 63.2969L112.859 53.7969H114.672C115.568 52.5365 116.458 51.151 117.344 49.6406C118.229 48.1198 119.078 46.5156 119.891 44.8281C120.714 43.1302 121.474 41.3802 122.172 39.5781C122.88 37.776 123.5 35.9688 124.031 34.1562H134.641L130.484 53.7969H133.359L131.344 63.2969H127.719L129.062 57H115.797L114.438 63.2969H110.859ZM118.812 53.7969H126.688L130.203 37.3594H126.531C126.156 38.526 125.688 39.8229 125.125 41.25C124.573 42.6667 123.953 44.125 123.266 45.625C122.578 47.125 121.854 48.5781 121.094 49.9844C120.344 51.3906 119.583 52.6615 118.812 53.7969ZM133.453 57L145.703 34.1562H150L152.594 57H148.969L148.328 50.6406H140.688L137.406 57H133.453ZM142.297 47.4219H148.078L147.562 41.8125C147.51 41.1146 147.453 40.3802 147.391 39.6094C147.328 38.8281 147.297 38.0885 147.297 37.3906H147.203C146.943 38.0677 146.641 38.7708 146.297 39.5C145.953 40.2188 145.583 40.9583 145.188 41.7188L142.297 47.4219ZM155.422 57.3281C154.995 57.3281 154.604 57.2917 154.25 57.2188C153.896 57.1458 153.594 57.0625 153.344 56.9688V53.8281C153.573 53.9115 153.818 53.9844 154.078 54.0469C154.339 54.1094 154.62 54.1406 154.922 54.1406C155.474 54.1406 155.979 54.0208 156.438 53.7812C156.896 53.5312 157.339 53.0781 157.766 52.4219C158.193 51.7552 158.635 50.8021 159.094 49.5625C159.427 48.6875 159.776 47.6823 160.141 46.5469C160.505 45.401 160.88 44.1615 161.266 42.8281C161.661 41.4948 162.057 40.099 162.453 38.6406C162.859 37.1719 163.26 35.6771 163.656 34.1562H176L171.125 57H167.438L171.609 37.3594H166.438C166.208 38.2656 165.964 39.1979 165.703 40.1562C165.443 41.1146 165.177 42.0729 164.906 43.0312C164.635 43.9896 164.359 44.9219 164.078 45.8281C163.807 46.7344 163.542 47.5938 163.281 48.4062C163.021 49.2083 162.771 49.9375 162.531 50.5938C161.938 52.1875 161.323 53.4792 160.688 54.4688C160.062 55.4583 159.333 56.1823 158.5 56.6406C157.667 57.099 156.641 57.3281 155.422 57.3281ZM176.938 57L181.766 34.1562H185.219L182.656 46.1719C182.531 46.7448 182.385 47.3854 182.219 48.0938C182.062 48.7917 181.906 49.474 181.75 50.1406C181.594 50.7969 181.458 51.349 181.344 51.7969H181.453L194.828 34.1562H199.25L194.422 57H191.016L193.562 44.9688C193.708 44.3125 193.854 43.6458 194 42.9688C194.146 42.2812 194.292 41.6094 194.438 40.9531C194.594 40.2865 194.745 39.6615 194.891 39.0781L194.797 39.0469L181.391 57H176.938ZM203.672 57L207.828 37.3438H201.891L202.562 34.1562H218.156L217.5 37.3438H211.547L207.391 57H203.672ZM216.719 57L221.547 34.1562H225.25L223.281 43.3906H224.969C226.74 43.3906 228.156 43.651 229.219 44.1719C230.281 44.6823 231.047 45.3906 231.516 46.2969C231.995 47.2031 232.234 48.2396 232.234 49.4062C232.234 50.6979 232.016 51.8177 231.578 52.7656C231.141 53.7135 230.516 54.5 229.703 55.125C228.891 55.75 227.911 56.2188 226.766 56.5312C225.63 56.8438 224.359 57 222.953 57H216.719ZM221.078 53.875H223.297C224.203 53.875 224.979 53.776 225.625 53.5781C226.271 53.3802 226.802 53.099 227.219 52.7344C227.646 52.3594 227.958 51.9115 228.156 51.3906C228.365 50.8698 228.469 50.2812 228.469 49.625C228.469 48.5312 228.156 47.7448 227.531 47.2656C226.917 46.776 226.031 46.5312 224.875 46.5312H222.641L221.078 53.875Z" fill="white"/>
<defs>
<radialGradient id="paint0_radial_243_21" cx="0" cy="0" r="1" gradientUnits="userSpaceOnUse" gradientTransform="translate(165 45) scale(165 45)">
<stop stop-color="#D9D9D9" stop-opacity="0"/>
<stop offset="1" stop-color="#B50303" stop-opacity="0.2"/>
</radialGradient>
</defs>
</svg>
