<svg width="218" height="62" viewBox="0 0 218 62" fill="none" xmlns="http://www.w3.org/2000/svg">
<mask id="path-1-inside-1_85_121" fill="white">
<path d="M0 8C0 3.58172 3.58172 0 8 0H210C214.418 0 218 3.58172 218 8V53.4897C218 57.908 214.418 61.4897 210 61.4897H8C3.58173 61.4897 0 57.908 0 53.4897V8Z"/>
</mask>
<path d="M8 3H210V-3H8V3ZM215 8V53.4897H221V8H215ZM210 58.4897H8V64.4897H210V58.4897ZM3 53.4897V8H-3V53.4897H3ZM8 58.4897C5.23858 58.4897 3 56.2511 3 53.4897H-3C-3 59.5648 1.92487 64.4897 8 64.4897V58.4897ZM215 53.4897C215 56.2511 212.761 58.4897 210 58.4897V64.4897C216.075 64.4897 221 59.5648 221 53.4897H215ZM210 3C212.761 3 215 5.23858 215 8H221C221 1.92487 216.075 -3 210 -3V3ZM8 -3C1.92487 -3 -3 1.92486 -3 8H3C3 5.23857 5.23857 3 8 3V-3Z" fill="url(#paint0_linear_85_121)" mask="url(#path-1-inside-1_85_121)"/>
<path d="M32.1797 38.1953C31.3138 38.1953 30.5618 38.1302 29.9238 38C29.2858 37.8763 28.7096 37.681 28.1953 37.4141V35.3438C28.7357 35.6497 29.3509 35.8906 30.041 36.0664C30.7311 36.2357 31.418 36.3203 32.1016 36.3203C32.6875 36.3203 33.2051 36.2585 33.6543 36.1348C34.1035 36.0111 34.4811 35.8353 34.7871 35.6074C35.0996 35.373 35.334 35.0898 35.4902 34.7578C35.653 34.4193 35.7344 34.0384 35.7344 33.6152C35.7344 32.873 35.4577 32.3392 34.9043 32.0137C34.3509 31.6882 33.5729 31.5254 32.5703 31.5254H30.8613L31.252 29.6699H32.834C33.4915 29.6699 34.1133 29.5951 34.6992 29.4453C35.2917 29.2891 35.7734 29.0319 36.1445 28.6738C36.5221 28.3092 36.7109 27.8079 36.7109 27.1699C36.7109 26.6035 36.5286 26.1706 36.1641 25.8711C35.806 25.5651 35.3014 25.4121 34.6504 25.4121C34.0319 25.4121 33.4297 25.5228 32.8438 25.7441C32.2643 25.959 31.6914 26.2487 31.125 26.6133L30.2559 24.9922C30.9785 24.5234 31.7174 24.1621 32.4727 23.9082C33.2344 23.6478 34.1393 23.5176 35.1875 23.5176C36.0013 23.5176 36.7012 23.6608 37.2871 23.9473C37.873 24.2272 38.3223 24.6146 38.6348 25.1094C38.9473 25.5977 39.1035 26.151 39.1035 26.7695C39.1035 27.5052 38.9408 28.1367 38.6152 28.6641C38.2962 29.1914 37.8438 29.6113 37.2578 29.9238C36.6784 30.2363 36.0046 30.4447 35.2363 30.5488V30.6074C35.8353 30.6855 36.3496 30.8613 36.7793 31.1348C37.209 31.4082 37.5378 31.763 37.7656 32.1992C38 32.6354 38.1172 33.14 38.1172 33.7129C38.1172 34.377 37.9902 34.9857 37.7363 35.5391C37.4889 36.0859 37.1178 36.5579 36.623 36.9551C36.1283 37.3522 35.5098 37.6582 34.7676 37.873C34.0254 38.0879 33.1628 38.1953 32.1797 38.1953ZM38.166 38L45.8223 23.7227H48.5078L50.1289 38H47.8633L47.4629 34.0254H42.6875L40.6367 38H38.166ZM43.6934 32.0137H47.3066L46.9844 28.5078C46.9518 28.0716 46.916 27.6126 46.877 27.1309C46.8379 26.6426 46.8184 26.1803 46.8184 25.7441H46.7598C46.597 26.1673 46.4082 26.6068 46.1934 27.0625C45.9785 27.5117 45.7474 27.974 45.5 28.4492L43.6934 32.0137ZM51.9062 38L54.9238 23.7227H62.5508L62.1309 25.6953H56.8086L56.0078 29.4941H57.1016C58.2018 29.4941 59.084 29.6569 59.748 29.9824C60.4121 30.3014 60.8939 30.7441 61.1934 31.3105C61.4928 31.877 61.6426 32.5247 61.6426 33.2539C61.6426 34.0612 61.5059 34.7611 61.2324 35.3535C60.959 35.946 60.5651 36.4375 60.0508 36.8281C59.543 37.2188 58.9342 37.5117 58.2246 37.707C57.515 37.9023 56.7207 38 55.8418 38H51.9062ZM54.6113 36.0469H56.0566C56.8118 36.0469 57.4238 35.9395 57.8926 35.7246C58.3678 35.5098 58.7194 35.2038 58.9473 34.8066C59.1751 34.403 59.2891 33.931 59.2891 33.3906C59.2891 32.707 59.0938 32.2155 58.7031 31.916C58.319 31.61 57.7624 31.457 57.0332 31.457H55.5977L54.6113 36.0469ZM63.4883 38L66.5059 23.7227H70.0996C71.1868 23.7227 72.0592 23.8854 72.7168 24.2109C73.3809 24.5365 73.8626 24.9954 74.1621 25.5879C74.4681 26.1738 74.6211 26.8607 74.6211 27.6484C74.6211 28.4688 74.4746 29.1914 74.1816 29.8164C73.8952 30.4349 73.4818 30.9557 72.9414 31.3789C72.401 31.7956 71.7467 32.1113 70.9785 32.3262C70.2168 32.5345 69.3607 32.6387 68.4102 32.6387H66.9258L65.793 38H63.4883ZM67.3457 30.7051H68.6543C69.3965 30.7051 70.0378 30.5944 70.5781 30.373C71.1185 30.1452 71.5352 29.8099 71.8281 29.3672C72.1276 28.918 72.2773 28.3678 72.2773 27.7168C72.2773 27.0072 72.082 26.4896 71.6914 26.1641C71.3008 25.832 70.7116 25.666 69.9238 25.666H68.4102L67.3457 30.7051ZM81.1836 38.1953C80.0312 38.1953 79.0612 37.9707 78.2734 37.5215C77.4922 37.0658 76.8997 36.4245 76.4961 35.5977C76.099 34.7708 75.9004 33.804 75.9004 32.6973C75.9004 31.916 75.9688 31.151 76.1055 30.4023C76.2487 29.6471 76.457 28.9277 76.7305 28.2441C77.0039 27.5605 77.3457 26.929 77.7559 26.3496C78.1725 25.7702 78.6543 25.2689 79.2012 24.8457C79.748 24.416 80.36 24.084 81.0371 23.8496C81.7207 23.6152 82.4661 23.498 83.2734 23.498C84.9401 23.498 86.2161 23.9896 87.1016 24.9727C87.9935 25.9557 88.4395 27.2904 88.4395 28.9766C88.4395 29.7578 88.3743 30.5293 88.2441 31.291C88.1204 32.0462 87.9251 32.7689 87.6582 33.459C87.3978 34.1426 87.069 34.7741 86.6719 35.3535C86.2747 35.9264 85.806 36.4245 85.2656 36.8477C84.7318 37.2708 84.123 37.6029 83.4395 37.8438C82.7624 38.0781 82.0104 38.1953 81.1836 38.1953ZM81.3203 36.1934C81.7956 36.1934 82.2415 36.1087 82.6582 35.9395C83.0749 35.7702 83.4557 35.5326 83.8008 35.2266C84.1523 34.9141 84.4648 34.5397 84.7383 34.1035C85.0182 33.6673 85.2526 33.1823 85.4414 32.6484C85.6367 32.1146 85.7865 31.5417 85.8906 30.9297C85.9948 30.3112 86.0469 29.6667 86.0469 28.9961C86.0469 27.9089 85.7897 27.0527 85.2754 26.4277C84.7676 25.8027 84.0417 25.4902 83.0977 25.4902C82.6094 25.4902 82.1504 25.5781 81.7207 25.7539C81.2975 25.9232 80.9069 26.1706 80.5488 26.4961C80.1908 26.8151 79.8717 27.196 79.5918 27.6387C79.3184 28.0749 79.084 28.5599 78.8887 29.0938C78.6934 29.6276 78.5436 30.1973 78.4395 30.8027C78.3418 31.4017 78.293 32.0267 78.293 32.6777C78.293 33.4199 78.4102 34.0547 78.6445 34.582C78.8854 35.1094 79.2305 35.5098 79.6797 35.7832C80.1354 36.0566 80.6823 36.1934 81.3203 36.1934ZM89.7676 38L92.7852 23.7227H95.0996L93.8594 29.5625H99.4258L100.656 23.7227H102.961L99.9434 38H97.6289L98.9961 31.5547H93.4395L92.0723 38H89.7676ZM103.566 38L106.584 23.7227H108.742L107.141 31.2324C107.062 31.5905 106.971 31.9909 106.867 32.4336C106.77 32.8698 106.672 33.2962 106.574 33.7129C106.477 34.123 106.392 34.4681 106.32 34.748H106.389L114.748 23.7227H117.512L114.494 38H112.365L113.957 30.4805C114.048 30.0703 114.139 29.6536 114.23 29.2305C114.322 28.8008 114.413 28.3809 114.504 27.9707C114.602 27.554 114.696 27.1634 114.787 26.7988L114.729 26.7793L106.35 38H103.566ZM118.117 38L121.135 23.7227H124.729C125.816 23.7227 126.688 23.8854 127.346 24.2109C128.01 24.5365 128.492 24.9954 128.791 25.5879C129.097 26.1738 129.25 26.8607 129.25 27.6484C129.25 28.4688 129.104 29.1914 128.811 29.8164C128.524 30.4349 128.111 30.9557 127.57 31.3789C127.03 31.7956 126.376 32.1113 125.607 32.3262C124.846 32.5345 123.99 32.6387 123.039 32.6387H121.555L120.422 38H118.117ZM121.975 30.7051H123.283C124.025 30.7051 124.667 30.5944 125.207 30.373C125.747 30.1452 126.164 29.8099 126.457 29.3672C126.757 28.918 126.906 28.3678 126.906 27.7168C126.906 27.0072 126.711 26.4896 126.32 26.1641C125.93 25.832 125.34 25.666 124.553 25.666H123.039L121.975 30.7051ZM135.812 38.1953C134.66 38.1953 133.69 37.9707 132.902 37.5215C132.121 37.0658 131.529 36.4245 131.125 35.5977C130.728 34.7708 130.529 33.804 130.529 32.6973C130.529 31.916 130.598 31.151 130.734 30.4023C130.878 29.6471 131.086 28.9277 131.359 28.2441C131.633 27.5605 131.975 26.929 132.385 26.3496C132.801 25.7702 133.283 25.2689 133.83 24.8457C134.377 24.416 134.989 24.084 135.666 23.8496C136.35 23.6152 137.095 23.498 137.902 23.498C139.569 23.498 140.845 23.9896 141.73 24.9727C142.622 25.9557 143.068 27.2904 143.068 28.9766C143.068 29.7578 143.003 30.5293 142.873 31.291C142.749 32.0462 142.554 32.7689 142.287 33.459C142.027 34.1426 141.698 34.7741 141.301 35.3535C140.904 35.9264 140.435 36.4245 139.895 36.8477C139.361 37.2708 138.752 37.6029 138.068 37.8438C137.391 38.0781 136.639 38.1953 135.812 38.1953ZM135.949 36.1934C136.424 36.1934 136.87 36.1087 137.287 35.9395C137.704 35.7702 138.085 35.5326 138.43 35.2266C138.781 34.9141 139.094 34.5397 139.367 34.1035C139.647 33.6673 139.882 33.1823 140.07 32.6484C140.266 32.1146 140.415 31.5417 140.52 30.9297C140.624 30.3112 140.676 29.6667 140.676 28.9961C140.676 27.9089 140.419 27.0527 139.904 26.4277C139.396 25.8027 138.671 25.4902 137.727 25.4902C137.238 25.4902 136.779 25.5781 136.35 25.7539C135.926 25.9232 135.536 26.1706 135.178 26.4961C134.82 26.8151 134.501 27.196 134.221 27.6387C133.947 28.0749 133.713 28.5599 133.518 29.0938C133.322 29.6276 133.173 30.1973 133.068 30.8027C132.971 31.4017 132.922 32.0267 132.922 32.6777C132.922 33.4199 133.039 34.0547 133.273 34.582C133.514 35.1094 133.859 35.5098 134.309 35.7832C134.764 36.0566 135.311 36.1934 135.949 36.1934ZM144.387 38L147.404 23.7227H151.33C152.229 23.7227 153.003 23.8333 153.654 24.0547C154.305 24.276 154.807 24.6211 155.158 25.0898C155.516 25.5586 155.695 26.1706 155.695 26.9258C155.695 27.5703 155.565 28.1432 155.305 28.6445C155.051 29.1393 154.686 29.5495 154.211 29.875C153.742 30.194 153.179 30.4186 152.521 30.5488V30.6367C153.179 30.8125 153.713 31.138 154.123 31.6133C154.533 32.082 154.738 32.694 154.738 33.4492C154.738 34.4779 154.494 35.3307 154.006 36.0078C153.524 36.6784 152.863 37.1797 152.023 37.5117C151.19 37.8372 150.24 38 149.172 38H144.387ZM147.111 36.0371H149.299C149.924 36.0371 150.464 35.9395 150.92 35.7441C151.382 35.5488 151.737 35.2591 151.984 34.875C152.238 34.4909 152.365 34.0189 152.365 33.459C152.365 32.8665 152.18 32.3913 151.809 32.0332C151.444 31.6751 150.858 31.4961 150.051 31.4961H148.078L147.111 36.0371ZM148.469 29.6113H150.422C150.975 29.6113 151.467 29.5332 151.896 29.377C152.333 29.2142 152.674 28.9668 152.922 28.6348C153.176 28.2962 153.303 27.8665 153.303 27.3457C153.303 26.7988 153.127 26.3822 152.775 26.0957C152.43 25.8092 151.877 25.666 151.115 25.666H149.309L148.469 29.6113ZM154.748 38L162.404 23.7227H165.09L166.711 38H164.445L164.045 34.0254H159.27L157.219 38H154.748ZM160.275 32.0137H163.889L163.566 28.5078C163.534 28.0716 163.498 27.6126 163.459 27.1309C163.42 26.6426 163.4 26.1803 163.4 25.7441H163.342C163.179 26.1673 162.99 26.6068 162.775 27.0625C162.561 27.5117 162.329 27.974 162.082 28.4492L160.275 32.0137ZM170.646 38L173.244 25.7148H169.533L169.953 23.7227H179.699L179.289 25.7148H175.568L172.971 38H170.646ZM178.801 38L181.818 23.7227H184.133L182.902 29.4941H183.957C185.064 29.4941 185.949 29.6569 186.613 29.9824C187.277 30.3014 187.756 30.7441 188.049 31.3105C188.348 31.877 188.498 32.5247 188.498 33.2539C188.498 34.0612 188.361 34.7611 188.088 35.3535C187.814 35.946 187.424 36.4375 186.916 36.8281C186.408 37.2188 185.796 37.5117 185.08 37.707C184.37 37.9023 183.576 38 182.697 38H178.801ZM181.525 36.0469H182.912C183.479 36.0469 183.964 35.985 184.367 35.8613C184.771 35.7376 185.103 35.5618 185.363 35.334C185.63 35.0996 185.826 34.8197 185.949 34.4941C186.079 34.1686 186.145 33.8008 186.145 33.3906C186.145 32.707 185.949 32.2155 185.559 31.916C185.174 31.61 184.621 31.457 183.898 31.457H182.502L181.525 36.0469Z" fill="white"/>
<defs>
<linearGradient id="paint0_linear_85_121" x1="0" y1="30.7449" x2="218" y2="30.7449" gradientUnits="userSpaceOnUse">
<stop stop-color="#CD06FF"/>
<stop offset="1" stop-color="#00D7D7"/>
</linearGradient>
</defs>
</svg>
