<svg width="497" height="115" viewBox="0 0 497 115" fill="none" xmlns="http://www.w3.org/2000/svg">
<path d="M34 1.5H495.5V81C495.5 98.9493 480.949 113.5 463 113.5H1.5V34C1.5 16.0507 16.0507 1.5 34 1.5Z" stroke="url(#paint0_linear_243_2)" stroke-width="3"/>
<path d="M110.141 75.2969L112.141 65.7969H113.953C114.849 64.5365 115.74 63.151 116.625 61.6406C117.51 60.1198 118.359 58.5156 119.172 56.8281C119.995 55.1302 120.755 53.3802 121.453 51.5781C122.161 49.776 122.781 47.9688 123.312 46.1562H133.922L129.766 65.7969H132.641L130.625 75.2969H127L128.344 69H115.078L113.719 75.2969H110.141ZM118.094 65.7969H125.969L129.484 49.3594H125.812C125.438 50.526 124.969 51.8229 124.406 53.25C123.854 54.6667 123.234 56.125 122.547 57.625C121.859 59.125 121.135 60.5781 120.375 61.9844C119.625 63.3906 118.865 64.6615 118.094 65.7969ZM145.188 69.3125C143.344 69.3125 141.792 68.9531 140.531 68.2344C139.281 67.5052 138.333 66.4792 137.688 65.1562C137.052 63.8333 136.734 62.2865 136.734 60.5156C136.734 59.2656 136.844 58.0417 137.062 56.8438C137.292 55.6354 137.625 54.4844 138.062 53.3906C138.5 52.2969 139.047 51.2865 139.703 50.3594C140.37 49.4323 141.141 48.6302 142.016 47.9531C142.891 47.2656 143.87 46.7344 144.953 46.3594C146.047 45.9844 147.24 45.7969 148.531 45.7969C151.198 45.7969 153.24 46.5833 154.656 48.1562C156.083 49.7292 156.797 51.8646 156.797 54.5625C156.797 55.8125 156.693 57.0469 156.484 58.2656C156.286 59.474 155.974 60.6302 155.547 61.7344C155.13 62.8281 154.604 63.8385 153.969 64.7656C153.333 65.6823 152.583 66.4792 151.719 67.1562C150.865 67.8333 149.891 68.3646 148.797 68.75C147.714 69.125 146.51 69.3125 145.188 69.3125ZM145.406 66.1094C146.167 66.1094 146.88 65.974 147.547 65.7031C148.214 65.4323 148.823 65.0521 149.375 64.5625C149.938 64.0625 150.438 63.4635 150.875 62.7656C151.323 62.0677 151.698 61.2917 152 60.4375C152.312 59.5833 152.552 58.6667 152.719 57.6875C152.885 56.6979 152.969 55.6667 152.969 54.5938C152.969 52.8542 152.557 51.4844 151.734 50.4844C150.922 49.4844 149.76 48.9844 148.25 48.9844C147.469 48.9844 146.734 49.125 146.047 49.4062C145.37 49.6771 144.745 50.0729 144.172 50.5938C143.599 51.1042 143.089 51.7135 142.641 52.4219C142.203 53.1198 141.828 53.8958 141.516 54.75C141.203 55.6042 140.964 56.5156 140.797 57.4844C140.641 58.4427 140.562 59.4427 140.562 60.4844C140.562 61.6719 140.75 62.6875 141.125 63.5312C141.51 64.375 142.062 65.0156 142.781 65.4531C143.51 65.8906 144.385 66.1094 145.406 66.1094ZM158.906 69L163.734 46.1562H175.938L175.266 49.3125H166.75L165.469 55.3906H167.219C168.979 55.3906 170.391 55.651 171.453 56.1719C172.516 56.6823 173.286 57.3906 173.766 58.2969C174.245 59.2031 174.484 60.2396 174.484 61.4062C174.484 62.6979 174.266 63.8177 173.828 64.7656C173.391 65.7135 172.76 66.5 171.938 67.125C171.125 67.75 170.151 68.2188 169.016 68.5312C167.88 68.8438 166.609 69 165.203 69H158.906ZM163.234 65.875H165.547C166.755 65.875 167.734 65.7031 168.484 65.3594C169.245 65.0156 169.807 64.526 170.172 63.8906C170.536 63.2448 170.719 62.4896 170.719 61.625C170.719 60.5312 170.406 59.7448 169.781 59.2656C169.167 58.776 168.276 58.5312 167.109 58.5312H164.812L163.234 65.875ZM174.484 69L186.734 46.1562H191.031L193.625 69H190L189.359 62.6406H181.719L178.438 69H174.484ZM183.328 59.4219H189.109L188.594 53.8125C188.542 53.1146 188.484 52.3802 188.422 51.6094C188.359 50.8281 188.328 50.0885 188.328 49.3906H188.234C187.974 50.0677 187.672 50.7708 187.328 51.5C186.984 52.2188 186.615 52.9583 186.219 53.7188L183.328 59.4219ZM196.469 69L201.297 46.1562H207.578C209.016 46.1562 210.255 46.3333 211.297 46.6875C212.339 47.0417 213.141 47.5938 213.703 48.3438C214.276 49.0938 214.562 50.0729 214.562 51.2812C214.562 52.3125 214.354 53.2292 213.938 54.0312C213.531 54.8229 212.948 55.4792 212.188 56C211.438 56.5104 210.536 56.8698 209.484 57.0781V57.2188C210.536 57.5 211.391 58.0208 212.047 58.7812C212.703 59.5312 213.031 60.5104 213.031 61.7188C213.031 63.3646 212.641 64.7292 211.859 65.8125C211.089 66.8854 210.031 67.6875 208.688 68.2188C207.354 68.7396 205.833 69 204.125 69H196.469ZM200.828 65.8594H204.328C205.328 65.8594 206.193 65.7031 206.922 65.3906C207.661 65.0781 208.229 64.6146 208.625 64C209.031 63.3854 209.234 62.6302 209.234 61.7344C209.234 60.7865 208.938 60.026 208.344 59.4531C207.76 58.8802 206.823 58.5938 205.531 58.5938H202.375L200.828 65.8594ZM203 55.5781H206.125C207.01 55.5781 207.797 55.4531 208.484 55.2031C209.182 54.9427 209.729 54.5469 210.125 54.0156C210.531 53.474 210.734 52.7865 210.734 51.9531C210.734 51.0781 210.453 50.4115 209.891 49.9531C209.339 49.4948 208.453 49.2656 207.234 49.2656H204.344L203 55.5781ZM216 69L220.828 46.1562H224.281L221.719 58.1719C221.594 58.7448 221.448 59.3854 221.281 60.0938C221.125 60.7917 220.969 61.474 220.812 62.1406C220.656 62.7969 220.521 63.349 220.406 63.7969H220.516L233.891 46.1562H238.312L233.484 69H230.078L232.625 56.9688C232.771 56.3125 232.917 55.6458 233.062 54.9688C233.208 54.2812 233.354 53.6094 233.5 52.9531C233.656 52.2865 233.807 51.6615 233.953 51.0781L233.859 51.0469L220.453 69H216ZM242.734 69L246.891 49.3438H240.953L241.625 46.1562H257.219L256.562 49.3438H250.609L246.453 69H242.734ZM255.781 69L260.609 46.1562H264.312L262.344 55.3906H264.031C265.802 55.3906 267.219 55.651 268.281 56.1719C269.344 56.6823 270.109 57.3906 270.578 58.2969C271.057 59.2031 271.297 60.2396 271.297 61.4062C271.297 62.6979 271.078 63.8177 270.641 64.7656C270.203 65.7135 269.578 66.5 268.766 67.125C267.953 67.75 266.974 68.2188 265.828 68.5312C264.693 68.8438 263.422 69 262.016 69H255.781ZM260.141 65.875H262.359C263.266 65.875 264.042 65.776 264.688 65.5781C265.333 65.3802 265.865 65.099 266.281 64.7344C266.708 64.3594 267.021 63.9115 267.219 63.3906C267.427 62.8698 267.531 62.2812 267.531 61.625C267.531 60.5312 267.219 59.7448 266.594 59.2656C265.979 58.776 265.094 58.5312 263.938 58.5312H261.703L260.141 65.875ZM282.453 69L287.281 46.1562H292.297L294 64.1719H294.125L303.641 46.1562H308.969L304.172 69H300.656L303.297 56.5C303.464 55.7083 303.641 54.9219 303.828 54.1406C304.016 53.349 304.198 52.599 304.375 51.8906C304.562 51.1823 304.729 50.5625 304.875 50.0312H304.766L294.703 69H291.469L289.688 50.0312H289.562C289.521 50.4792 289.443 51.0625 289.328 51.7812C289.214 52.5 289.083 53.276 288.938 54.1094C288.792 54.9323 288.635 55.7344 288.469 56.5156L285.844 69H282.453ZM309.938 69L314.766 46.1562H326.938L326.266 49.3125H317.797L316.484 55.5156H324.406L323.75 58.6562H315.828L314.297 65.8281H322.766L322.094 69H309.938ZM336.156 69.3125C334.385 69.3125 332.885 68.9531 331.656 68.2344C330.438 67.5052 329.51 66.4792 328.875 65.1562C328.24 63.8333 327.922 62.2656 327.922 60.4531C327.922 59.0781 328.078 57.6927 328.391 56.2969C328.714 54.901 329.198 53.5781 329.844 52.3281C330.49 51.0677 331.302 49.9531 332.281 48.9844C333.26 48.0052 334.406 47.2344 335.719 46.6719C337.042 46.099 338.536 45.8125 340.203 45.8125C341.474 45.8125 342.583 45.9323 343.531 46.1719C344.49 46.4115 345.422 46.776 346.328 47.2656L344.875 50.3125C344.208 49.9375 343.5 49.625 342.75 49.375C342 49.125 341.151 49 340.203 49C339.047 49 338.01 49.2188 337.094 49.6562C336.188 50.0938 335.396 50.6927 334.719 51.4531C334.052 52.2135 333.5 53.0833 333.062 54.0625C332.625 55.0312 332.297 56.0521 332.078 57.125C331.859 58.1875 331.75 59.2448 331.75 60.2969C331.75 62.1615 332.182 63.599 333.047 64.6094C333.911 65.6094 335.182 66.1094 336.859 66.1094C337.745 66.1094 338.62 66.0104 339.484 65.8125C340.359 65.6146 341.219 65.3594 342.062 65.0469V68.2344C341.333 68.5052 340.484 68.7552 339.516 68.9844C338.557 69.2031 337.438 69.3125 336.156 69.3125ZM349.547 69L353.703 49.3438H347.766L348.438 46.1562H364.031L363.375 49.3438H357.422L353.266 69H349.547ZM372.094 69.3125C370.25 69.3125 368.698 68.9531 367.438 68.2344C366.188 67.5052 365.24 66.4792 364.594 65.1562C363.958 63.8333 363.641 62.2865 363.641 60.5156C363.641 59.2656 363.75 58.0417 363.969 56.8438C364.198 55.6354 364.531 54.4844 364.969 53.3906C365.406 52.2969 365.953 51.2865 366.609 50.3594C367.276 49.4323 368.047 48.6302 368.922 47.9531C369.797 47.2656 370.776 46.7344 371.859 46.3594C372.953 45.9844 374.146 45.7969 375.438 45.7969C378.104 45.7969 380.146 46.5833 381.562 48.1562C382.99 49.7292 383.703 51.8646 383.703 54.5625C383.703 55.8125 383.599 57.0469 383.391 58.2656C383.193 59.474 382.88 60.6302 382.453 61.7344C382.036 62.8281 381.51 63.8385 380.875 64.7656C380.24 65.6823 379.49 66.4792 378.625 67.1562C377.771 67.8333 376.797 68.3646 375.703 68.75C374.62 69.125 373.417 69.3125 372.094 69.3125ZM372.312 66.1094C373.073 66.1094 373.786 65.974 374.453 65.7031C375.12 65.4323 375.729 65.0521 376.281 64.5625C376.844 64.0625 377.344 63.4635 377.781 62.7656C378.229 62.0677 378.604 61.2917 378.906 60.4375C379.219 59.5833 379.458 58.6667 379.625 57.6875C379.792 56.6979 379.875 55.6667 379.875 54.5938C379.875 52.8542 379.464 51.4844 378.641 50.4844C377.828 49.4844 376.667 48.9844 375.156 48.9844C374.375 48.9844 373.641 49.125 372.953 49.4062C372.276 49.6771 371.651 50.0729 371.078 50.5938C370.505 51.1042 369.995 51.7135 369.547 52.4219C369.109 53.1198 368.734 53.8958 368.422 54.75C368.109 55.6042 367.87 56.5156 367.703 57.4844C367.547 58.4427 367.469 59.4427 367.469 60.4844C367.469 61.6719 367.656 62.6875 368.031 63.5312C368.417 64.375 368.969 65.0156 369.688 65.4531C370.417 65.8906 371.292 66.1094 372.312 66.1094Z" fill="white"/>
<defs>
<linearGradient id="paint0_linear_243_2" x1="248.5" y1="0" x2="248.5" y2="115" gradientUnits="userSpaceOnUse">
<stop stop-color="#CD06FF"/>
<stop offset="1" stop-color="#00D7D7"/>
</linearGradient>
</defs>
</svg>
