<svg width="307" height="62" viewBox="0 0 307 62" fill="none" xmlns="http://www.w3.org/2000/svg">
<mask id="path-1-inside-1_62_4084" fill="white">
<path fill-rule="evenodd" clip-rule="evenodd" d="M306.125 2C306.125 0.89543 305.23 0 304.125 0H2C0.895431 0 0 0.895432 0 2V60C0 61.1046 0.895424 62 1.99999 62H257.303C257.549 62 257.794 61.9543 258.024 61.8652L304.847 43.7464C305.617 43.4482 306.125 42.7072 306.125 41.8811V2Z"/>
</mask>
<path d="M304.847 43.7464L303.764 40.9485L304.847 43.7464ZM258.024 61.8652L259.107 64.663L258.024 61.8652ZM2 3H304.125V-3H2V3ZM3 60V2H-3V60H3ZM257.303 59H1.99999V65H257.303V59ZM259.107 64.663L305.929 46.5442L303.764 40.9485L256.942 59.0674L259.107 64.663ZM303.125 2V41.8811H309.125V2H303.125ZM305.929 46.5442C307.855 45.7989 309.125 43.9462 309.125 41.8811H303.125C303.125 41.4681 303.379 41.0976 303.764 40.9485L305.929 46.5442ZM257.303 65C257.92 65 258.532 64.8858 259.107 64.663L256.942 59.0674C257.057 59.0229 257.179 59 257.303 59V65ZM-3 60C-3 62.7614 -0.761442 65 1.99999 65V59C2.55229 59 3 59.4477 3 60H-3ZM304.125 3C303.573 3 303.125 2.55228 303.125 2H309.125C309.125 -0.761416 306.886 -3 304.125 -3V3ZM2 -3C-0.761427 -3 -3 -0.761419 -3 2H3C3 2.55228 2.55229 3 2 3V-3Z" fill="url(#paint0_linear_62_4084)" mask="url(#path-1-inside-1_62_4084)"/>
<path d="M76.1797 39.1953C75.3138 39.1953 74.5618 39.1302 73.9238 39C73.2858 38.8763 72.7096 38.681 72.1953 38.4141V36.3438C72.7357 36.6497 73.3509 36.8906 74.041 37.0664C74.7311 37.2357 75.418 37.3203 76.1016 37.3203C76.6875 37.3203 77.2051 37.2585 77.6543 37.1348C78.1035 37.0111 78.4811 36.8353 78.7871 36.6074C79.0996 36.373 79.334 36.0898 79.4902 35.7578C79.653 35.4193 79.7344 35.0384 79.7344 34.6152C79.7344 33.873 79.4577 33.3392 78.9043 33.0137C78.3509 32.6882 77.5729 32.5254 76.5703 32.5254H74.8613L75.252 30.6699H76.834C77.4915 30.6699 78.1133 30.5951 78.6992 30.4453C79.2917 30.2891 79.7734 30.0319 80.1445 29.6738C80.5221 29.3092 80.7109 28.8079 80.7109 28.1699C80.7109 27.6035 80.5286 27.1706 80.1641 26.8711C79.806 26.5651 79.3014 26.4121 78.6504 26.4121C78.0319 26.4121 77.4297 26.5228 76.8438 26.7441C76.2643 26.959 75.6914 27.2487 75.125 27.6133L74.2559 25.9922C74.9785 25.5234 75.7174 25.1621 76.4727 24.9082C77.2344 24.6478 78.1393 24.5176 79.1875 24.5176C80.0013 24.5176 80.7012 24.6608 81.2871 24.9473C81.873 25.2272 82.3223 25.6146 82.6348 26.1094C82.9473 26.5977 83.1035 27.151 83.1035 27.7695C83.1035 28.5052 82.9408 29.1367 82.6152 29.6641C82.2962 30.1914 81.8438 30.6113 81.2578 30.9238C80.6784 31.2363 80.0046 31.4447 79.2363 31.5488V31.6074C79.8353 31.6855 80.3496 31.8613 80.7793 32.1348C81.209 32.4082 81.5378 32.763 81.7656 33.1992C82 33.6354 82.1172 34.14 82.1172 34.7129C82.1172 35.377 81.9902 35.9857 81.7363 36.5391C81.4889 37.0859 81.1178 37.5579 80.623 37.9551C80.1283 38.3522 79.5098 38.6582 78.7676 38.873C78.0254 39.0879 77.1628 39.1953 76.1797 39.1953ZM82.166 39L89.8223 24.7227H92.5078L94.1289 39H91.8633L91.4629 35.0254H86.6875L84.6367 39H82.166ZM87.6934 33.0137H91.3066L90.9844 29.5078C90.9518 29.0716 90.916 28.6126 90.877 28.1309C90.8379 27.6426 90.8184 27.1803 90.8184 26.7441H90.7598C90.597 27.1673 90.4082 27.6068 90.1934 28.0625C89.9785 28.5117 89.7474 28.974 89.5 29.4492L87.6934 33.0137ZM95.9062 39L98.9238 24.7227H106.551L106.131 26.6953H100.809L100.008 30.4941H101.102C102.202 30.4941 103.084 30.6569 103.748 30.9824C104.412 31.3014 104.894 31.7441 105.193 32.3105C105.493 32.877 105.643 33.5247 105.643 34.2539C105.643 35.0612 105.506 35.7611 105.232 36.3535C104.959 36.946 104.565 37.4375 104.051 37.8281C103.543 38.2188 102.934 38.5117 102.225 38.707C101.515 38.9023 100.721 39 99.8418 39H95.9062ZM98.6113 37.0469H100.057C100.812 37.0469 101.424 36.9395 101.893 36.7246C102.368 36.5098 102.719 36.2038 102.947 35.8066C103.175 35.403 103.289 34.931 103.289 34.3906C103.289 33.707 103.094 33.2155 102.703 32.916C102.319 32.61 101.762 32.457 101.033 32.457H99.5977L98.6113 37.0469ZM107.488 39L110.506 24.7227H114.1C115.187 24.7227 116.059 24.8854 116.717 25.2109C117.381 25.5365 117.863 25.9954 118.162 26.5879C118.468 27.1738 118.621 27.8607 118.621 28.6484C118.621 29.4688 118.475 30.1914 118.182 30.8164C117.895 31.4349 117.482 31.9557 116.941 32.3789C116.401 32.7956 115.747 33.1113 114.979 33.3262C114.217 33.5345 113.361 33.6387 112.41 33.6387H110.926L109.793 39H107.488ZM111.346 31.7051H112.654C113.396 31.7051 114.038 31.5944 114.578 31.373C115.118 31.1452 115.535 30.8099 115.828 30.3672C116.128 29.918 116.277 29.3678 116.277 28.7168C116.277 28.0072 116.082 27.4896 115.691 27.1641C115.301 26.832 114.712 26.666 113.924 26.666H112.41L111.346 31.7051ZM125.184 39.1953C124.031 39.1953 123.061 38.9707 122.273 38.5215C121.492 38.0658 120.9 37.4245 120.496 36.5977C120.099 35.7708 119.9 34.804 119.9 33.6973C119.9 32.916 119.969 32.151 120.105 31.4023C120.249 30.6471 120.457 29.9277 120.73 29.2441C121.004 28.5605 121.346 27.929 121.756 27.3496C122.173 26.7702 122.654 26.2689 123.201 25.8457C123.748 25.416 124.36 25.084 125.037 24.8496C125.721 24.6152 126.466 24.498 127.273 24.498C128.94 24.498 130.216 24.9896 131.102 25.9727C131.993 26.9557 132.439 28.2904 132.439 29.9766C132.439 30.7578 132.374 31.5293 132.244 32.291C132.12 33.0462 131.925 33.7689 131.658 34.459C131.398 35.1426 131.069 35.7741 130.672 36.3535C130.275 36.9264 129.806 37.4245 129.266 37.8477C128.732 38.2708 128.123 38.6029 127.439 38.8438C126.762 39.0781 126.01 39.1953 125.184 39.1953ZM125.32 37.1934C125.796 37.1934 126.242 37.1087 126.658 36.9395C127.075 36.7702 127.456 36.5326 127.801 36.2266C128.152 35.9141 128.465 35.5397 128.738 35.1035C129.018 34.6673 129.253 34.1823 129.441 33.6484C129.637 33.1146 129.786 32.5417 129.891 31.9297C129.995 31.3112 130.047 30.6667 130.047 29.9961C130.047 28.9089 129.79 28.0527 129.275 27.4277C128.768 26.8027 128.042 26.4902 127.098 26.4902C126.609 26.4902 126.15 26.5781 125.721 26.7539C125.298 26.9232 124.907 27.1706 124.549 27.4961C124.191 27.8151 123.872 28.196 123.592 28.6387C123.318 29.0749 123.084 29.5599 122.889 30.0938C122.693 30.6276 122.544 31.1973 122.439 31.8027C122.342 32.4017 122.293 33.0267 122.293 33.6777C122.293 34.4199 122.41 35.0547 122.645 35.582C122.885 36.1094 123.23 36.5098 123.68 36.7832C124.135 37.0566 124.682 37.1934 125.32 37.1934ZM133.768 39L136.785 24.7227H139.1L137.859 30.5625H143.426L144.656 24.7227H146.961L143.943 39H141.629L142.996 32.5547H137.439L136.072 39H133.768ZM147.566 39L150.584 24.7227H152.742L151.141 32.2324C151.062 32.5905 150.971 32.9909 150.867 33.4336C150.77 33.8698 150.672 34.2962 150.574 34.7129C150.477 35.123 150.392 35.4681 150.32 35.748H150.389L158.748 24.7227H161.512L158.494 39H156.365L157.957 31.4805C158.048 31.0703 158.139 30.6536 158.23 30.2305C158.322 29.8008 158.413 29.3809 158.504 28.9707C158.602 28.554 158.696 28.1634 158.787 27.7988L158.729 27.7793L150.35 39H147.566ZM162.117 39L165.135 24.7227H168.729C169.816 24.7227 170.688 24.8854 171.346 25.2109C172.01 25.5365 172.492 25.9954 172.791 26.5879C173.097 27.1738 173.25 27.8607 173.25 28.6484C173.25 29.4688 173.104 30.1914 172.811 30.8164C172.524 31.4349 172.111 31.9557 171.57 32.3789C171.03 32.7956 170.376 33.1113 169.607 33.3262C168.846 33.5345 167.99 33.6387 167.039 33.6387H165.555L164.422 39H162.117ZM165.975 31.7051H167.283C168.025 31.7051 168.667 31.5944 169.207 31.373C169.747 31.1452 170.164 30.8099 170.457 30.3672C170.757 29.918 170.906 29.3678 170.906 28.7168C170.906 28.0072 170.711 27.4896 170.32 27.1641C169.93 26.832 169.34 26.666 168.553 26.666H167.039L165.975 31.7051ZM179.812 39.1953C178.66 39.1953 177.69 38.9707 176.902 38.5215C176.121 38.0658 175.529 37.4245 175.125 36.5977C174.728 35.7708 174.529 34.804 174.529 33.6973C174.529 32.916 174.598 32.151 174.734 31.4023C174.878 30.6471 175.086 29.9277 175.359 29.2441C175.633 28.5605 175.975 27.929 176.385 27.3496C176.801 26.7702 177.283 26.2689 177.83 25.8457C178.377 25.416 178.989 25.084 179.666 24.8496C180.35 24.6152 181.095 24.498 181.902 24.498C183.569 24.498 184.845 24.9896 185.73 25.9727C186.622 26.9557 187.068 28.2904 187.068 29.9766C187.068 30.7578 187.003 31.5293 186.873 32.291C186.749 33.0462 186.554 33.7689 186.287 34.459C186.027 35.1426 185.698 35.7741 185.301 36.3535C184.904 36.9264 184.435 37.4245 183.895 37.8477C183.361 38.2708 182.752 38.6029 182.068 38.8438C181.391 39.0781 180.639 39.1953 179.812 39.1953ZM179.949 37.1934C180.424 37.1934 180.87 37.1087 181.287 36.9395C181.704 36.7702 182.085 36.5326 182.43 36.2266C182.781 35.9141 183.094 35.5397 183.367 35.1035C183.647 34.6673 183.882 34.1823 184.07 33.6484C184.266 33.1146 184.415 32.5417 184.52 31.9297C184.624 31.3112 184.676 30.6667 184.676 29.9961C184.676 28.9089 184.419 28.0527 183.904 27.4277C183.396 26.8027 182.671 26.4902 181.727 26.4902C181.238 26.4902 180.779 26.5781 180.35 26.7539C179.926 26.9232 179.536 27.1706 179.178 27.4961C178.82 27.8151 178.501 28.196 178.221 28.6387C177.947 29.0749 177.713 29.5599 177.518 30.0938C177.322 30.6276 177.173 31.1973 177.068 31.8027C176.971 32.4017 176.922 33.0267 176.922 33.6777C176.922 34.4199 177.039 35.0547 177.273 35.582C177.514 36.1094 177.859 36.5098 178.309 36.7832C178.764 37.0566 179.311 37.1934 179.949 37.1934ZM188.387 39L191.404 24.7227H195.33C196.229 24.7227 197.003 24.8333 197.654 25.0547C198.305 25.276 198.807 25.6211 199.158 26.0898C199.516 26.5586 199.695 27.1706 199.695 27.9258C199.695 28.5703 199.565 29.1432 199.305 29.6445C199.051 30.1393 198.686 30.5495 198.211 30.875C197.742 31.194 197.179 31.4186 196.521 31.5488V31.6367C197.179 31.8125 197.713 32.138 198.123 32.6133C198.533 33.082 198.738 33.694 198.738 34.4492C198.738 35.4779 198.494 36.3307 198.006 37.0078C197.524 37.6784 196.863 38.1797 196.023 38.5117C195.19 38.8372 194.24 39 193.172 39H188.387ZM191.111 37.0371H193.299C193.924 37.0371 194.464 36.9395 194.92 36.7441C195.382 36.5488 195.737 36.2591 195.984 35.875C196.238 35.4909 196.365 35.0189 196.365 34.459C196.365 33.8665 196.18 33.3913 195.809 33.0332C195.444 32.6751 194.858 32.4961 194.051 32.4961H192.078L191.111 37.0371ZM192.469 30.6113H194.422C194.975 30.6113 195.467 30.5332 195.896 30.377C196.333 30.2142 196.674 29.9668 196.922 29.6348C197.176 29.2962 197.303 28.8665 197.303 28.3457C197.303 27.7988 197.127 27.3822 196.775 27.0957C196.43 26.8092 195.877 26.666 195.115 26.666H193.309L192.469 30.6113ZM198.748 39L206.404 24.7227H209.09L210.711 39H208.445L208.045 35.0254H203.27L201.219 39H198.748ZM204.275 33.0137H207.889L207.566 29.5078C207.534 29.0716 207.498 28.6126 207.459 28.1309C207.42 27.6426 207.4 27.1803 207.4 26.7441H207.342C207.179 27.1673 206.99 27.6068 206.775 28.0625C206.561 28.5117 206.329 28.974 206.082 29.4492L204.275 33.0137ZM214.646 39L217.244 26.7148H213.533L213.953 24.7227H223.699L223.289 26.7148H219.568L216.971 39H214.646ZM222.801 39L225.818 24.7227H228.133L226.902 30.4941H227.957C229.064 30.4941 229.949 30.6569 230.613 30.9824C231.277 31.3014 231.756 31.7441 232.049 32.3105C232.348 32.877 232.498 33.5247 232.498 34.2539C232.498 35.0612 232.361 35.7611 232.088 36.3535C231.814 36.946 231.424 37.4375 230.916 37.8281C230.408 38.2188 229.796 38.5117 229.08 38.707C228.37 38.9023 227.576 39 226.697 39H222.801ZM225.525 37.0469H226.912C227.479 37.0469 227.964 36.985 228.367 36.8613C228.771 36.7376 229.103 36.5618 229.363 36.334C229.63 36.0996 229.826 35.8197 229.949 35.4941C230.079 35.1686 230.145 34.8008 230.145 34.3906C230.145 33.707 229.949 33.2155 229.559 32.916C229.174 32.61 228.621 32.457 227.898 32.457H226.502L225.525 37.0469Z" fill="white"/>
<defs>
<linearGradient id="paint0_linear_62_4084" x1="0" y1="31" x2="306.125" y2="31" gradientUnits="userSpaceOnUse">
<stop stop-color="#CD06FF"/>
<stop offset="1" stop-color="#00D7D7"/>
</linearGradient>
</defs>
</svg>
