<svg width="255" height="52" viewBox="0 0 255 52" fill="none" xmlns="http://www.w3.org/2000/svg">
<mask id="path-1-inside-1_85_14" fill="white">
<path fill-rule="evenodd" clip-rule="evenodd" d="M255 2C255 0.89543 254.105 0 253 0H2C0.895431 0 0 0.895432 0 2V50C0 51.1046 0.895427 52 2 52H223.205C223.454 52 223.7 51.9537 223.931 51.8635L253.726 40.2547C254.494 39.9554 255 39.2155 255 38.3912V2Z"/>
</mask>
<path d="M253.726 40.2547L252.637 37.4594L253.726 40.2547ZM223.931 51.8635L225.02 54.6589L223.931 51.8635ZM2 3H253V-3H2V3ZM3 50V2H-3V50H3ZM223.205 49H2V55H223.205V49ZM225.02 54.6589L254.815 43.05L252.637 37.4594L222.842 49.0682L225.02 54.6589ZM252 2V38.3912H258V2H252ZM254.815 43.05C256.735 42.3018 258 40.4521 258 38.3912H252C252 37.979 252.253 37.609 252.637 37.4594L254.815 43.05ZM223.205 55C223.826 55 224.442 54.8843 225.02 54.6589L222.842 49.0682C222.958 49.0231 223.081 49 223.205 49V55ZM-3 50C-3 52.7614 -0.761434 55 2 55V49C2.55229 49 3 49.4477 3 50H-3ZM253 3C252.448 3 252 2.55228 252 2H258C258 -0.761424 255.761 -3 253 -3V3ZM2 -3C-0.761426 -3 -3 -0.76142 -3 2H3C3 2.55228 2.55229 3 2 3V-3Z" fill="url(#paint0_linear_85_14)" mask="url(#path-1-inside-1_85_14)"/>
<path d="M48.873 33.1953C48.0072 33.1953 47.2552 33.1302 46.6172 33C45.9792 32.8763 45.403 32.681 44.8887 32.4141V30.3438C45.429 30.6497 46.0443 30.8906 46.7344 31.0664C47.4245 31.2357 48.1113 31.3203 48.7949 31.3203C49.3809 31.3203 49.8984 31.2585 50.3477 31.1348C50.7969 31.0111 51.1745 30.8353 51.4805 30.6074C51.793 30.373 52.0273 30.0898 52.1836 29.7578C52.3464 29.4193 52.4277 29.0384 52.4277 28.6152C52.4277 27.873 52.151 27.3392 51.5977 27.0137C51.0443 26.6882 50.2663 26.5254 49.2637 26.5254H47.5547L47.9453 24.6699H49.5273C50.1849 24.6699 50.8066 24.5951 51.3926 24.4453C51.985 24.2891 52.4668 24.0319 52.8379 23.6738C53.2155 23.3092 53.4043 22.8079 53.4043 22.1699C53.4043 21.6035 53.222 21.1706 52.8574 20.8711C52.4993 20.5651 51.9948 20.4121 51.3438 20.4121C50.7253 20.4121 50.123 20.5228 49.5371 20.7441C48.9577 20.959 48.3848 21.2487 47.8184 21.6133L46.9492 19.9922C47.6719 19.5234 48.4108 19.1621 49.166 18.9082C49.9277 18.6478 50.8327 18.5176 51.8809 18.5176C52.6947 18.5176 53.3945 18.6608 53.9805 18.9473C54.5664 19.2272 55.0156 19.6146 55.3281 20.1094C55.6406 20.5977 55.7969 21.151 55.7969 21.7695C55.7969 22.5052 55.6341 23.1367 55.3086 23.6641C54.9896 24.1914 54.5371 24.6113 53.9512 24.9238C53.3717 25.2363 52.6979 25.4447 51.9297 25.5488V25.6074C52.5286 25.6855 53.043 25.8613 53.4727 26.1348C53.9023 26.4082 54.2311 26.763 54.459 27.1992C54.6934 27.6354 54.8105 28.14 54.8105 28.7129C54.8105 29.377 54.6836 29.9857 54.4297 30.5391C54.1823 31.0859 53.8112 31.5579 53.3164 31.9551C52.8216 32.3522 52.2031 32.6582 51.4609 32.873C50.7188 33.0879 49.8561 33.1953 48.873 33.1953ZM54.8594 33L62.5156 18.7227H65.2012L66.8223 33H64.5566L64.1562 29.0254H59.3809L57.3301 33H54.8594ZM60.3867 27.0137H64L63.6777 23.5078C63.6452 23.0716 63.6094 22.6126 63.5703 22.1309C63.5312 21.6426 63.5117 21.1803 63.5117 20.7441H63.4531C63.2904 21.1673 63.1016 21.6068 62.8867 22.0625C62.6719 22.5117 62.4408 22.974 62.1934 23.4492L60.3867 27.0137ZM68.5996 33L71.6172 18.7227H79.2441L78.8242 20.6953H73.502L72.7012 24.4941H73.7949C74.8952 24.4941 75.7773 24.6569 76.4414 24.9824C77.1055 25.3014 77.5872 25.7441 77.8867 26.3105C78.1862 26.877 78.3359 27.5247 78.3359 28.2539C78.3359 29.0612 78.1992 29.7611 77.9258 30.3535C77.6523 30.946 77.2585 31.4375 76.7441 31.8281C76.2363 32.2188 75.6276 32.5117 74.918 32.707C74.2083 32.9023 73.4141 33 72.5352 33H68.5996ZM71.3047 31.0469H72.75C73.5052 31.0469 74.1172 30.9395 74.5859 30.7246C75.0612 30.5098 75.4128 30.2038 75.6406 29.8066C75.8685 29.403 75.9824 28.931 75.9824 28.3906C75.9824 27.707 75.7871 27.2155 75.3965 26.916C75.0124 26.61 74.4557 26.457 73.7266 26.457H72.291L71.3047 31.0469ZM80.1816 33L83.1992 18.7227H86.793C87.8802 18.7227 88.7526 18.8854 89.4102 19.2109C90.0742 19.5365 90.556 19.9954 90.8555 20.5879C91.1615 21.1738 91.3145 21.8607 91.3145 22.6484C91.3145 23.4688 91.168 24.1914 90.875 24.8164C90.5885 25.4349 90.1751 25.9557 89.6348 26.3789C89.0944 26.7956 88.4401 27.1113 87.6719 27.3262C86.9102 27.5345 86.054 27.6387 85.1035 27.6387H83.6191L82.4863 33H80.1816ZM84.0391 25.7051H85.3477C86.0898 25.7051 86.7311 25.5944 87.2715 25.373C87.8118 25.1452 88.2285 24.8099 88.5215 24.3672C88.821 23.918 88.9707 23.3678 88.9707 22.7168C88.9707 22.0072 88.7754 21.4896 88.3848 21.1641C87.9941 20.832 87.4049 20.666 86.6172 20.666H85.1035L84.0391 25.7051ZM97.877 33.1953C96.7246 33.1953 95.7546 32.9707 94.9668 32.5215C94.1855 32.0658 93.5931 31.4245 93.1895 30.5977C92.7923 29.7708 92.5938 28.804 92.5938 27.6973C92.5938 26.916 92.6621 26.151 92.7988 25.4023C92.9421 24.6471 93.1504 23.9277 93.4238 23.2441C93.6973 22.5605 94.0391 21.929 94.4492 21.3496C94.8659 20.7702 95.3477 20.2689 95.8945 19.8457C96.4414 19.416 97.0534 19.084 97.7305 18.8496C98.4141 18.6152 99.1595 18.498 99.9668 18.498C101.633 18.498 102.91 18.9896 103.795 19.9727C104.687 20.9557 105.133 22.2904 105.133 23.9766C105.133 24.7578 105.068 25.5293 104.938 26.291C104.814 27.0462 104.618 27.7689 104.352 28.459C104.091 29.1426 103.762 29.7741 103.365 30.3535C102.968 30.9264 102.499 31.4245 101.959 31.8477C101.425 32.2708 100.816 32.6029 100.133 32.8438C99.4557 33.0781 98.7038 33.1953 97.877 33.1953ZM98.0137 31.1934C98.4889 31.1934 98.9349 31.1087 99.3516 30.9395C99.7682 30.7702 100.149 30.5326 100.494 30.2266C100.846 29.9141 101.158 29.5397 101.432 29.1035C101.712 28.6673 101.946 28.1823 102.135 27.6484C102.33 27.1146 102.48 26.5417 102.584 25.9297C102.688 25.3112 102.74 24.6667 102.74 23.9961C102.74 22.9089 102.483 22.0527 101.969 21.4277C101.461 20.8027 100.735 20.4902 99.791 20.4902C99.3027 20.4902 98.8438 20.5781 98.4141 20.7539C97.9909 20.9232 97.6003 21.1706 97.2422 21.4961C96.8841 21.8151 96.5651 22.196 96.2852 22.6387C96.0117 23.0749 95.7773 23.5599 95.582 24.0938C95.3867 24.6276 95.237 25.1973 95.1328 25.8027C95.0352 26.4017 94.9863 27.0267 94.9863 27.6777C94.9863 28.4199 95.1035 29.0547 95.3379 29.582C95.5788 30.1094 95.9238 30.5098 96.373 30.7832C96.8288 31.0566 97.3757 31.1934 98.0137 31.1934ZM106.461 33L109.479 18.7227H111.793L110.553 24.5625H116.119L117.35 18.7227H119.654L116.637 33H114.322L115.689 26.5547H110.133L108.766 33H106.461ZM120.26 33L123.277 18.7227H125.436L123.834 26.2324C123.756 26.5905 123.665 26.9909 123.561 27.4336C123.463 27.8698 123.365 28.2962 123.268 28.7129C123.17 29.123 123.085 29.4681 123.014 29.748H123.082L131.441 18.7227H134.205L131.188 33H129.059L130.65 25.4805C130.742 25.0703 130.833 24.6536 130.924 24.2305C131.015 23.8008 131.106 23.3809 131.197 22.9707C131.295 22.554 131.389 22.1634 131.48 21.7988L131.422 21.7793L123.043 33H120.26ZM134.811 33L137.828 18.7227H141.422C142.509 18.7227 143.382 18.8854 144.039 19.2109C144.703 19.5365 145.185 19.9954 145.484 20.5879C145.79 21.1738 145.943 21.8607 145.943 22.6484C145.943 23.4688 145.797 24.1914 145.504 24.8164C145.217 25.4349 144.804 25.9557 144.264 26.3789C143.723 26.7956 143.069 27.1113 142.301 27.3262C141.539 27.5345 140.683 27.6387 139.732 27.6387H138.248L137.115 33H134.811ZM138.668 25.7051H139.977C140.719 25.7051 141.36 25.5944 141.9 25.373C142.441 25.1452 142.857 24.8099 143.15 24.3672C143.45 23.918 143.6 23.3678 143.6 22.7168C143.6 22.0072 143.404 21.4896 143.014 21.1641C142.623 20.832 142.034 20.666 141.246 20.666H139.732L138.668 25.7051ZM152.506 33.1953C151.354 33.1953 150.383 32.9707 149.596 32.5215C148.814 32.0658 148.222 31.4245 147.818 30.5977C147.421 29.7708 147.223 28.804 147.223 27.6973C147.223 26.916 147.291 26.151 147.428 25.4023C147.571 24.6471 147.779 23.9277 148.053 23.2441C148.326 22.5605 148.668 21.929 149.078 21.3496C149.495 20.7702 149.977 20.2689 150.523 19.8457C151.07 19.416 151.682 19.084 152.359 18.8496C153.043 18.6152 153.788 18.498 154.596 18.498C156.262 18.498 157.538 18.9896 158.424 19.9727C159.316 20.9557 159.762 22.2904 159.762 23.9766C159.762 24.7578 159.697 25.5293 159.566 26.291C159.443 27.0462 159.247 27.7689 158.98 28.459C158.72 29.1426 158.391 29.7741 157.994 30.3535C157.597 30.9264 157.128 31.4245 156.588 31.8477C156.054 32.2708 155.445 32.6029 154.762 32.8438C154.085 33.0781 153.333 33.1953 152.506 33.1953ZM152.643 31.1934C153.118 31.1934 153.564 31.1087 153.98 30.9395C154.397 30.7702 154.778 30.5326 155.123 30.2266C155.475 29.9141 155.787 29.5397 156.061 29.1035C156.34 28.6673 156.575 28.1823 156.764 27.6484C156.959 27.1146 157.109 26.5417 157.213 25.9297C157.317 25.3112 157.369 24.6667 157.369 23.9961C157.369 22.9089 157.112 22.0527 156.598 21.4277C156.09 20.8027 155.364 20.4902 154.42 20.4902C153.932 20.4902 153.473 20.5781 153.043 20.7539C152.62 20.9232 152.229 21.1706 151.871 21.4961C151.513 21.8151 151.194 22.196 150.914 22.6387C150.641 23.0749 150.406 23.5599 150.211 24.0938C150.016 24.6276 149.866 25.1973 149.762 25.8027C149.664 26.4017 149.615 27.0267 149.615 27.6777C149.615 28.4199 149.732 29.0547 149.967 29.582C150.208 30.1094 150.553 30.5098 151.002 30.7832C151.458 31.0566 152.005 31.1934 152.643 31.1934ZM161.08 33L164.098 18.7227H168.023C168.922 18.7227 169.697 18.8333 170.348 19.0547C170.999 19.276 171.5 19.6211 171.852 20.0898C172.21 20.5586 172.389 21.1706 172.389 21.9258C172.389 22.5703 172.258 23.1432 171.998 23.6445C171.744 24.1393 171.38 24.5495 170.904 24.875C170.436 25.194 169.872 25.4186 169.215 25.5488V25.6367C169.872 25.8125 170.406 26.138 170.816 26.6133C171.227 27.082 171.432 27.694 171.432 28.4492C171.432 29.4779 171.188 30.3307 170.699 31.0078C170.217 31.6784 169.557 32.1797 168.717 32.5117C167.883 32.8372 166.933 33 165.865 33H161.08ZM163.805 31.0371H165.992C166.617 31.0371 167.158 30.9395 167.613 30.7441C168.076 30.5488 168.43 30.2591 168.678 29.875C168.932 29.4909 169.059 29.0189 169.059 28.459C169.059 27.8665 168.873 27.3913 168.502 27.0332C168.137 26.6751 167.551 26.4961 166.744 26.4961H164.771L163.805 31.0371ZM165.162 24.6113H167.115C167.669 24.6113 168.16 24.5332 168.59 24.377C169.026 24.2142 169.368 23.9668 169.615 23.6348C169.869 23.2962 169.996 22.8665 169.996 22.3457C169.996 21.7988 169.82 21.3822 169.469 21.0957C169.124 20.8092 168.57 20.666 167.809 20.666H166.002L165.162 24.6113ZM171.441 33L179.098 18.7227H181.783L183.404 33H181.139L180.738 29.0254H175.963L173.912 33H171.441ZM176.969 27.0137H180.582L180.26 23.5078C180.227 23.0716 180.191 22.6126 180.152 22.1309C180.113 21.6426 180.094 21.1803 180.094 20.7441H180.035C179.872 21.1673 179.684 21.6068 179.469 22.0625C179.254 22.5117 179.023 22.974 178.775 23.4492L176.969 27.0137ZM187.34 33L189.938 20.7148H186.227L186.646 18.7227H196.393L195.982 20.7148H192.262L189.664 33H187.34ZM195.494 33L198.512 18.7227H200.826L199.596 24.4941H200.65C201.757 24.4941 202.643 24.6569 203.307 24.9824C203.971 25.3014 204.449 25.7441 204.742 26.3105C205.042 26.877 205.191 27.5247 205.191 28.2539C205.191 29.0612 205.055 29.7611 204.781 30.3535C204.508 30.946 204.117 31.4375 203.609 31.8281C203.102 32.2188 202.49 32.5117 201.773 32.707C201.064 32.9023 200.27 33 199.391 33H195.494ZM198.219 31.0469H199.605C200.172 31.0469 200.657 30.985 201.061 30.8613C201.464 30.7376 201.796 30.5618 202.057 30.334C202.324 30.0996 202.519 29.8197 202.643 29.4941C202.773 29.1686 202.838 28.8008 202.838 28.3906C202.838 27.707 202.643 27.2155 202.252 26.916C201.868 26.61 201.314 26.457 200.592 26.457H199.195L198.219 31.0469Z" fill="white"/>
<defs>
<linearGradient id="paint0_linear_85_14" x1="0" y1="26" x2="255" y2="26" gradientUnits="userSpaceOnUse">
<stop stop-color="#CD06FF"/>
<stop offset="1" stop-color="#00D7D7"/>
</linearGradient>
</defs>
</svg>
