<svg width="344" height="71" viewBox="0 0 344 71" fill="none" xmlns="http://www.w3.org/2000/svg">
<mask id="path-1-inside-1_85_61" fill="white">
<path d="M0.75 8.74585C0.75 4.32757 4.33172 0.74585 8.75 0.74585H336C340.418 0.74585 344 4.32757 344 8.74585V62.2648C344 66.6831 340.418 70.2648 336 70.2648H8.74999C4.33172 70.2648 0.75 66.6831 0.75 62.2648V8.74585Z"/>
</mask>
<path d="M8.75 3.74585H336V-2.25415H8.75V3.74585ZM341 8.74585V62.2648H347V8.74585H341ZM336 67.2648H8.74999V73.2648H336V67.2648ZM3.75 62.2648V8.74585H-2.25V62.2648H3.75ZM8.74999 67.2648C5.98857 67.2648 3.75 65.0263 3.75 62.2648H-2.25C-2.25 68.34 2.67486 73.2648 8.74999 73.2648V67.2648ZM341 62.2648C341 65.0263 338.761 67.2648 336 67.2648V73.2648C342.075 73.2648 347 68.34 347 62.2648H341ZM336 3.74585C338.761 3.74585 341 5.98442 341 8.74585H347C347 2.67072 342.075 -2.25415 336 -2.25415V3.74585ZM8.75 -2.25415C2.67487 -2.25415 -2.25 2.67071 -2.25 8.74585H3.75C3.75 5.98442 5.98857 3.74585 8.75 3.74585V-2.25415Z" fill="url(#paint0_linear_85_61)" mask="url(#path-1-inside-1_85_61)"/>
<path d="M95.1797 43.1953C94.3138 43.1953 93.5618 43.1302 92.9238 43C92.2858 42.8763 91.7096 42.681 91.1953 42.4141V40.3438C91.7357 40.6497 92.3509 40.8906 93.041 41.0664C93.7311 41.2357 94.418 41.3203 95.1016 41.3203C95.6875 41.3203 96.2051 41.2585 96.6543 41.1348C97.1035 41.0111 97.4811 40.8353 97.7871 40.6074C98.0996 40.373 98.334 40.0898 98.4902 39.7578C98.653 39.4193 98.7344 39.0384 98.7344 38.6152C98.7344 37.873 98.4577 37.3392 97.9043 37.0137C97.3509 36.6882 96.5729 36.5254 95.5703 36.5254H93.8613L94.252 34.6699H95.834C96.4915 34.6699 97.1133 34.5951 97.6992 34.4453C98.2917 34.2891 98.7734 34.0319 99.1445 33.6738C99.5221 33.3092 99.7109 32.8079 99.7109 32.1699C99.7109 31.6035 99.5286 31.1706 99.1641 30.8711C98.806 30.5651 98.3014 30.4121 97.6504 30.4121C97.0319 30.4121 96.4297 30.5228 95.8438 30.7441C95.2643 30.959 94.6914 31.2487 94.125 31.6133L93.2559 29.9922C93.9785 29.5234 94.7174 29.1621 95.4727 28.9082C96.2344 28.6478 97.1393 28.5176 98.1875 28.5176C99.0013 28.5176 99.7012 28.6608 100.287 28.9473C100.873 29.2272 101.322 29.6146 101.635 30.1094C101.947 30.5977 102.104 31.151 102.104 31.7695C102.104 32.5052 101.941 33.1367 101.615 33.6641C101.296 34.1914 100.844 34.6113 100.258 34.9238C99.6784 35.2363 99.0046 35.4447 98.2363 35.5488V35.6074C98.8353 35.6855 99.3496 35.8613 99.7793 36.1348C100.209 36.4082 100.538 36.763 100.766 37.1992C101 37.6354 101.117 38.14 101.117 38.7129C101.117 39.377 100.99 39.9857 100.736 40.5391C100.489 41.0859 100.118 41.5579 99.623 41.9551C99.1283 42.3522 98.5098 42.6582 97.7676 42.873C97.0254 43.0879 96.1628 43.1953 95.1797 43.1953ZM101.166 43L108.822 28.7227H111.508L113.129 43H110.863L110.463 39.0254H105.688L103.637 43H101.166ZM106.693 37.0137H110.307L109.984 33.5078C109.952 33.0716 109.916 32.6126 109.877 32.1309C109.838 31.6426 109.818 31.1803 109.818 30.7441H109.76C109.597 31.1673 109.408 31.6068 109.193 32.0625C108.979 32.5117 108.747 32.974 108.5 33.4492L106.693 37.0137ZM114.906 43L117.924 28.7227H125.551L125.131 30.6953H119.809L119.008 34.4941H120.102C121.202 34.4941 122.084 34.6569 122.748 34.9824C123.412 35.3014 123.894 35.7441 124.193 36.3105C124.493 36.877 124.643 37.5247 124.643 38.2539C124.643 39.0612 124.506 39.7611 124.232 40.3535C123.959 40.946 123.565 41.4375 123.051 41.8281C122.543 42.2188 121.934 42.5117 121.225 42.707C120.515 42.9023 119.721 43 118.842 43H114.906ZM117.611 41.0469H119.057C119.812 41.0469 120.424 40.9395 120.893 40.7246C121.368 40.5098 121.719 40.2038 121.947 39.8066C122.175 39.403 122.289 38.931 122.289 38.3906C122.289 37.707 122.094 37.2155 121.703 36.916C121.319 36.61 120.762 36.457 120.033 36.457H118.598L117.611 41.0469ZM126.488 43L129.506 28.7227H133.1C134.187 28.7227 135.059 28.8854 135.717 29.2109C136.381 29.5365 136.863 29.9954 137.162 30.5879C137.468 31.1738 137.621 31.8607 137.621 32.6484C137.621 33.4688 137.475 34.1914 137.182 34.8164C136.895 35.4349 136.482 35.9557 135.941 36.3789C135.401 36.7956 134.747 37.1113 133.979 37.3262C133.217 37.5345 132.361 37.6387 131.41 37.6387H129.926L128.793 43H126.488ZM130.346 35.7051H131.654C132.396 35.7051 133.038 35.5944 133.578 35.373C134.118 35.1452 134.535 34.8099 134.828 34.3672C135.128 33.918 135.277 33.3678 135.277 32.7168C135.277 32.0072 135.082 31.4896 134.691 31.1641C134.301 30.832 133.712 30.666 132.924 30.666H131.41L130.346 35.7051ZM144.184 43.1953C143.031 43.1953 142.061 42.9707 141.273 42.5215C140.492 42.0658 139.9 41.4245 139.496 40.5977C139.099 39.7708 138.9 38.804 138.9 37.6973C138.9 36.916 138.969 36.151 139.105 35.4023C139.249 34.6471 139.457 33.9277 139.73 33.2441C140.004 32.5605 140.346 31.929 140.756 31.3496C141.173 30.7702 141.654 30.2689 142.201 29.8457C142.748 29.416 143.36 29.084 144.037 28.8496C144.721 28.6152 145.466 28.498 146.273 28.498C147.94 28.498 149.216 28.9896 150.102 29.9727C150.993 30.9557 151.439 32.2904 151.439 33.9766C151.439 34.7578 151.374 35.5293 151.244 36.291C151.12 37.0462 150.925 37.7689 150.658 38.459C150.398 39.1426 150.069 39.7741 149.672 40.3535C149.275 40.9264 148.806 41.4245 148.266 41.8477C147.732 42.2708 147.123 42.6029 146.439 42.8438C145.762 43.0781 145.01 43.1953 144.184 43.1953ZM144.32 41.1934C144.796 41.1934 145.242 41.1087 145.658 40.9395C146.075 40.7702 146.456 40.5326 146.801 40.2266C147.152 39.9141 147.465 39.5397 147.738 39.1035C148.018 38.6673 148.253 38.1823 148.441 37.6484C148.637 37.1146 148.786 36.5417 148.891 35.9297C148.995 35.3112 149.047 34.6667 149.047 33.9961C149.047 32.9089 148.79 32.0527 148.275 31.4277C147.768 30.8027 147.042 30.4902 146.098 30.4902C145.609 30.4902 145.15 30.5781 144.721 30.7539C144.298 30.9232 143.907 31.1706 143.549 31.4961C143.191 31.8151 142.872 32.196 142.592 32.6387C142.318 33.0749 142.084 33.5599 141.889 34.0938C141.693 34.6276 141.544 35.1973 141.439 35.8027C141.342 36.4017 141.293 37.0267 141.293 37.6777C141.293 38.4199 141.41 39.0547 141.645 39.582C141.885 40.1094 142.23 40.5098 142.68 40.7832C143.135 41.0566 143.682 41.1934 144.32 41.1934ZM152.768 43L155.785 28.7227H158.1L156.859 34.5625H162.426L163.656 28.7227H165.961L162.943 43H160.629L161.996 36.5547H156.439L155.072 43H152.768ZM166.566 43L169.584 28.7227H171.742L170.141 36.2324C170.062 36.5905 169.971 36.9909 169.867 37.4336C169.77 37.8698 169.672 38.2962 169.574 38.7129C169.477 39.123 169.392 39.4681 169.32 39.748H169.389L177.748 28.7227H180.512L177.494 43H175.365L176.957 35.4805C177.048 35.0703 177.139 34.6536 177.23 34.2305C177.322 33.8008 177.413 33.3809 177.504 32.9707C177.602 32.554 177.696 32.1634 177.787 31.7988L177.729 31.7793L169.35 43H166.566ZM181.117 43L184.135 28.7227H187.729C188.816 28.7227 189.688 28.8854 190.346 29.2109C191.01 29.5365 191.492 29.9954 191.791 30.5879C192.097 31.1738 192.25 31.8607 192.25 32.6484C192.25 33.4688 192.104 34.1914 191.811 34.8164C191.524 35.4349 191.111 35.9557 190.57 36.3789C190.03 36.7956 189.376 37.1113 188.607 37.3262C187.846 37.5345 186.99 37.6387 186.039 37.6387H184.555L183.422 43H181.117ZM184.975 35.7051H186.283C187.025 35.7051 187.667 35.5944 188.207 35.373C188.747 35.1452 189.164 34.8099 189.457 34.3672C189.757 33.918 189.906 33.3678 189.906 32.7168C189.906 32.0072 189.711 31.4896 189.32 31.1641C188.93 30.832 188.34 30.666 187.553 30.666H186.039L184.975 35.7051ZM198.812 43.1953C197.66 43.1953 196.69 42.9707 195.902 42.5215C195.121 42.0658 194.529 41.4245 194.125 40.5977C193.728 39.7708 193.529 38.804 193.529 37.6973C193.529 36.916 193.598 36.151 193.734 35.4023C193.878 34.6471 194.086 33.9277 194.359 33.2441C194.633 32.5605 194.975 31.929 195.385 31.3496C195.801 30.7702 196.283 30.2689 196.83 29.8457C197.377 29.416 197.989 29.084 198.666 28.8496C199.35 28.6152 200.095 28.498 200.902 28.498C202.569 28.498 203.845 28.9896 204.73 29.9727C205.622 30.9557 206.068 32.2904 206.068 33.9766C206.068 34.7578 206.003 35.5293 205.873 36.291C205.749 37.0462 205.554 37.7689 205.287 38.459C205.027 39.1426 204.698 39.7741 204.301 40.3535C203.904 40.9264 203.435 41.4245 202.895 41.8477C202.361 42.2708 201.752 42.6029 201.068 42.8438C200.391 43.0781 199.639 43.1953 198.812 43.1953ZM198.949 41.1934C199.424 41.1934 199.87 41.1087 200.287 40.9395C200.704 40.7702 201.085 40.5326 201.43 40.2266C201.781 39.9141 202.094 39.5397 202.367 39.1035C202.647 38.6673 202.882 38.1823 203.07 37.6484C203.266 37.1146 203.415 36.5417 203.52 35.9297C203.624 35.3112 203.676 34.6667 203.676 33.9961C203.676 32.9089 203.419 32.0527 202.904 31.4277C202.396 30.8027 201.671 30.4902 200.727 30.4902C200.238 30.4902 199.779 30.5781 199.35 30.7539C198.926 30.9232 198.536 31.1706 198.178 31.4961C197.82 31.8151 197.501 32.196 197.221 32.6387C196.947 33.0749 196.713 33.5599 196.518 34.0938C196.322 34.6276 196.173 35.1973 196.068 35.8027C195.971 36.4017 195.922 37.0267 195.922 37.6777C195.922 38.4199 196.039 39.0547 196.273 39.582C196.514 40.1094 196.859 40.5098 197.309 40.7832C197.764 41.0566 198.311 41.1934 198.949 41.1934ZM207.387 43L210.404 28.7227H214.33C215.229 28.7227 216.003 28.8333 216.654 29.0547C217.305 29.276 217.807 29.6211 218.158 30.0898C218.516 30.5586 218.695 31.1706 218.695 31.9258C218.695 32.5703 218.565 33.1432 218.305 33.6445C218.051 34.1393 217.686 34.5495 217.211 34.875C216.742 35.194 216.179 35.4186 215.521 35.5488V35.6367C216.179 35.8125 216.713 36.138 217.123 36.6133C217.533 37.082 217.738 37.694 217.738 38.4492C217.738 39.4779 217.494 40.3307 217.006 41.0078C216.524 41.6784 215.863 42.1797 215.023 42.5117C214.19 42.8372 213.24 43 212.172 43H207.387ZM210.111 41.0371H212.299C212.924 41.0371 213.464 40.9395 213.92 40.7441C214.382 40.5488 214.737 40.2591 214.984 39.875C215.238 39.4909 215.365 39.0189 215.365 38.459C215.365 37.8665 215.18 37.3913 214.809 37.0332C214.444 36.6751 213.858 36.4961 213.051 36.4961H211.078L210.111 41.0371ZM211.469 34.6113H213.422C213.975 34.6113 214.467 34.5332 214.896 34.377C215.333 34.2142 215.674 33.9668 215.922 33.6348C216.176 33.2962 216.303 32.8665 216.303 32.3457C216.303 31.7988 216.127 31.3822 215.775 31.0957C215.43 30.8092 214.877 30.666 214.115 30.666H212.309L211.469 34.6113ZM217.748 43L225.404 28.7227H228.09L229.711 43H227.445L227.045 39.0254H222.27L220.219 43H217.748ZM223.275 37.0137H226.889L226.566 33.5078C226.534 33.0716 226.498 32.6126 226.459 32.1309C226.42 31.6426 226.4 31.1803 226.4 30.7441H226.342C226.179 31.1673 225.99 31.6068 225.775 32.0625C225.561 32.5117 225.329 32.974 225.082 33.4492L223.275 37.0137ZM233.646 43L236.244 30.7148H232.533L232.953 28.7227H242.699L242.289 30.7148H238.568L235.971 43H233.646ZM241.801 43L244.818 28.7227H247.133L245.902 34.4941H246.957C248.064 34.4941 248.949 34.6569 249.613 34.9824C250.277 35.3014 250.756 35.7441 251.049 36.3105C251.348 36.877 251.498 37.5247 251.498 38.2539C251.498 39.0612 251.361 39.7611 251.088 40.3535C250.814 40.946 250.424 41.4375 249.916 41.8281C249.408 42.2188 248.796 42.5117 248.08 42.707C247.37 42.9023 246.576 43 245.697 43H241.801ZM244.525 41.0469H245.912C246.479 41.0469 246.964 40.985 247.367 40.8613C247.771 40.7376 248.103 40.5618 248.363 40.334C248.63 40.0996 248.826 39.8197 248.949 39.4941C249.079 39.1686 249.145 38.8008 249.145 38.3906C249.145 37.707 248.949 37.2155 248.559 36.916C248.174 36.61 247.621 36.457 246.898 36.457H245.502L244.525 41.0469Z" fill="white"/>
<defs>
<linearGradient id="paint0_linear_85_61" x1="0.75" y1="35.5053" x2="344" y2="35.5053" gradientUnits="userSpaceOnUse">
<stop stop-color="#CD06FF"/>
<stop offset="1" stop-color="#00D7D7"/>
</linearGradient>
</defs>
</svg>
