<svg width="415" height="84" viewBox="0 0 415 84" fill="none" xmlns="http://www.w3.org/2000/svg">
<mask id="path-1-inside-1_242_8" fill="white">
<path d="M0 8C0 3.58172 3.58172 0 8 0H406.75C411.168 0 414.75 3.58172 414.75 8V76C414.75 80.4183 411.168 84 406.75 84H8C3.58172 84 0 80.4183 0 76V8Z"/>
</mask>
<path d="M0 8C0 3.58172 3.58172 0 8 0H406.75C411.168 0 414.75 3.58172 414.75 8V76C414.75 80.4183 411.168 84 406.75 84H8C3.58172 84 0 80.4183 0 76V8Z" fill="url(#paint0_linear_242_8)"/>
<path d="M8 3H406.75V-3H8V3ZM411.75 8V76H417.75V8H411.75ZM406.75 81H8V87H406.75V81ZM3 76V8H-3V76H3ZM8 81C5.23857 81 3 78.7614 3 76H-3C-3 82.0751 1.92486 87 8 87V81ZM411.75 76C411.75 78.7614 409.511 81 406.75 81V87C412.825 87 417.75 82.0751 417.75 76H411.75ZM406.75 3C409.511 3 411.75 5.23857 411.75 8H417.75C417.75 1.92487 412.825 -3 406.75 -3V3ZM8 -3C1.92487 -3 -3 1.92487 -3 8H3C3 5.23858 5.23858 3 8 3V-3Z" fill="url(#paint1_linear_242_8)" mask="url(#path-1-inside-1_242_8)"/>
<path d="M70.0938 54L74.9219 31.1562H78.375L75.8125 43.1719C75.6875 43.7448 75.5417 44.3854 75.375 45.0938C75.2188 45.7917 75.0625 46.474 74.9062 47.1406C74.75 47.7969 74.6146 48.349 74.5 48.7969H74.6094L87.9844 31.1562H92.4062L87.5781 54H84.1719L86.7188 41.9688C86.8646 41.3125 87.0104 40.6458 87.1562 39.9688C87.3021 39.2812 87.4479 38.6094 87.5938 37.9531C87.75 37.2865 87.901 36.6615 88.0469 36.0781L87.9531 36.0469L74.5469 54H70.0938ZM98.9688 54.3125C97.5833 54.3125 96.3802 54.2083 95.3594 54C94.3385 53.8021 93.4167 53.4896 92.5938 53.0625V49.75C93.4583 50.2396 94.4427 50.625 95.5469 50.9062C96.651 51.1771 97.75 51.3125 98.8438 51.3125C99.7812 51.3125 100.609 51.2135 101.328 51.0156C102.047 50.8177 102.651 50.5365 103.141 50.1719C103.641 49.7969 104.016 49.3438 104.266 48.8125C104.526 48.2708 104.656 47.6615 104.656 46.9844C104.656 45.7969 104.214 44.9427 103.328 44.4219C102.443 43.901 101.198 43.6406 99.5938 43.6406H96.8594L97.4844 40.6719H100.016C101.068 40.6719 102.062 40.5521 103 40.3125C103.948 40.0625 104.719 39.651 105.312 39.0781C105.917 38.4948 106.219 37.6927 106.219 36.6719C106.219 35.7656 105.927 35.0729 105.344 34.5938C104.771 34.1042 103.964 33.8594 102.922 33.8594C101.932 33.8594 100.969 34.0365 100.031 34.3906C99.1042 34.7344 98.1875 35.1979 97.2812 35.7812L95.8906 33.1875C97.0469 32.4375 98.2292 31.8594 99.4375 31.4531C100.656 31.0365 102.104 30.8281 103.781 30.8281C105.083 30.8281 106.203 31.0573 107.141 31.5156C108.078 31.9635 108.797 32.5833 109.297 33.375C109.797 34.1562 110.047 35.0417 110.047 36.0312C110.047 37.2083 109.786 38.2188 109.266 39.0625C108.755 39.9062 108.031 40.5781 107.094 41.0781C106.167 41.5781 105.089 41.9115 103.859 42.0781V42.1719C104.818 42.2969 105.641 42.5781 106.328 43.0156C107.016 43.4531 107.542 44.0208 107.906 44.7188C108.281 45.4167 108.469 46.224 108.469 47.1406C108.469 48.2031 108.266 49.1771 107.859 50.0625C107.464 50.9375 106.87 51.6927 106.078 52.3281C105.286 52.9635 104.297 53.4531 103.109 53.7969C101.922 54.1406 100.542 54.3125 98.9688 54.3125ZM111.484 54L116.312 31.1562H121.328L123.031 49.1719H123.156L132.672 31.1562H138L133.203 54H129.688L132.328 41.5C132.495 40.7083 132.672 39.9219 132.859 39.1406C133.047 38.349 133.229 37.599 133.406 36.8906C133.594 36.1823 133.76 35.5625 133.906 35.0312H133.797L123.734 54H120.5L118.719 35.0312H118.594C118.552 35.4792 118.474 36.0625 118.359 36.7812C118.245 37.5 118.115 38.276 117.969 39.1094C117.823 39.9323 117.667 40.7344 117.5 41.5156L114.875 54H111.484ZM138.969 54L143.797 31.1562H155.969L155.297 34.3125H146.828L145.516 40.5156H153.438L152.781 43.6562H144.859L143.328 50.8281H151.797L151.125 54H138.969ZM155.922 54L160.75 31.1562H164.453L162.469 40.5H171.375L173.344 31.1562H177.031L172.203 54H168.5L170.688 43.6875H161.797L159.609 54H155.922ZM178 54L182.828 31.1562H186.281L183.719 43.1719C183.594 43.7448 183.448 44.3854 183.281 45.0938C183.125 45.7917 182.969 46.474 182.812 47.1406C182.656 47.7969 182.521 48.349 182.406 48.7969H182.516L195.891 31.1562H200.312L195.484 54H192.078L194.625 41.9688C194.771 41.3125 194.917 40.6458 195.062 39.9688C195.208 39.2812 195.354 38.6094 195.5 37.9531C195.656 37.2865 195.807 36.6615 195.953 36.0781L195.859 36.0469L182.453 54H178ZM204.734 54L208.891 34.3438H202.953L203.625 31.1562H219.219L218.562 34.3438H212.609L208.453 54H204.734ZM217.781 54L222.609 31.1562H226.312L224.344 40.3906H226.031C227.802 40.3906 229.219 40.651 230.281 41.1719C231.344 41.6823 232.109 42.3906 232.578 43.2969C233.057 44.2031 233.297 45.2396 233.297 46.4062C233.297 47.6979 233.078 48.8177 232.641 49.7656C232.203 50.7135 231.578 51.5 230.766 52.125C229.953 52.75 228.974 53.2188 227.828 53.5312C226.693 53.8438 225.422 54 224.016 54H217.781ZM222.141 50.875H224.359C225.266 50.875 226.042 50.776 226.688 50.5781C227.333 50.3802 227.865 50.099 228.281 49.7344C228.708 49.3594 229.021 48.9115 229.219 48.3906C229.427 47.8698 229.531 47.2812 229.531 46.625C229.531 45.5312 229.219 44.7448 228.594 44.2656C227.979 43.776 227.094 43.5312 225.938 43.5312H223.703L222.141 50.875ZM244.469 54L249.297 31.1562H261.5L260.828 34.3125H252.312L251.031 40.3906H252.781C254.542 40.3906 255.953 40.651 257.016 41.1719C258.078 41.6823 258.849 42.3906 259.328 43.2969C259.807 44.2031 260.047 45.2396 260.047 46.4062C260.047 47.6979 259.828 48.8177 259.391 49.7656C258.953 50.7135 258.323 51.5 257.5 52.125C256.688 52.75 255.714 53.2188 254.578 53.5312C253.443 53.8438 252.172 54 250.766 54H244.469ZM248.797 50.875H251.109C252.318 50.875 253.297 50.7031 254.047 50.3594C254.807 50.0156 255.37 49.526 255.734 48.8906C256.099 48.2448 256.281 47.4896 256.281 46.625C256.281 45.5312 255.969 44.7448 255.344 44.2656C254.729 43.776 253.839 43.5312 252.672 43.5312H250.375L248.797 50.875ZM263 54L267.828 31.1562H273.578C275.318 31.1562 276.714 31.4167 277.766 31.9375C278.828 32.4583 279.599 33.1927 280.078 34.1406C280.568 35.0781 280.812 36.1771 280.812 37.4375C280.812 38.75 280.578 39.9062 280.109 40.9062C279.651 41.8958 278.99 42.7292 278.125 43.4062C277.26 44.0729 276.214 44.5781 274.984 44.9219C273.766 45.2552 272.396 45.4219 270.875 45.4219H268.5L266.688 54H263ZM269.172 42.3281H271.266C272.453 42.3281 273.479 42.151 274.344 41.7969C275.208 41.4323 275.875 40.8958 276.344 40.1875C276.823 39.4688 277.062 38.5885 277.062 37.5469C277.062 36.4115 276.75 35.5833 276.125 35.0625C275.5 34.5312 274.557 34.2656 273.297 34.2656H270.875L269.172 42.3281ZM291.312 54.3125C289.469 54.3125 287.917 53.9531 286.656 53.2344C285.406 52.5052 284.458 51.4792 283.812 50.1562C283.177 48.8333 282.859 47.2865 282.859 45.5156C282.859 44.2656 282.969 43.0417 283.188 41.8438C283.417 40.6354 283.75 39.4844 284.188 38.3906C284.625 37.2969 285.172 36.2865 285.828 35.3594C286.495 34.4323 287.266 33.6302 288.141 32.9531C289.016 32.2656 289.995 31.7344 291.078 31.3594C292.172 30.9844 293.365 30.7969 294.656 30.7969C297.323 30.7969 299.365 31.5833 300.781 33.1562C302.208 34.7292 302.922 36.8646 302.922 39.5625C302.922 40.8125 302.818 42.0469 302.609 43.2656C302.411 44.474 302.099 45.6302 301.672 46.7344C301.255 47.8281 300.729 48.8385 300.094 49.7656C299.458 50.6823 298.708 51.4792 297.844 52.1562C296.99 52.8333 296.016 53.3646 294.922 53.75C293.839 54.125 292.635 54.3125 291.312 54.3125ZM291.531 51.1094C292.292 51.1094 293.005 50.974 293.672 50.7031C294.339 50.4323 294.948 50.0521 295.5 49.5625C296.062 49.0625 296.562 48.4635 297 47.7656C297.448 47.0677 297.823 46.2917 298.125 45.4375C298.438 44.5833 298.677 43.6667 298.844 42.6875C299.01 41.6979 299.094 40.6667 299.094 39.5938C299.094 37.8542 298.682 36.4844 297.859 35.4844C297.047 34.4844 295.885 33.9844 294.375 33.9844C293.594 33.9844 292.859 34.125 292.172 34.4062C291.495 34.6771 290.87 35.0729 290.297 35.5938C289.724 36.1042 289.214 36.7135 288.766 37.4219C288.328 38.1198 287.953 38.8958 287.641 39.75C287.328 40.6042 287.089 41.5156 286.922 42.4844C286.766 43.4427 286.688 44.4427 286.688 45.4844C286.688 46.6719 286.875 47.6875 287.25 48.5312C287.635 49.375 288.188 50.0156 288.906 50.4531C289.635 50.8906 290.51 51.1094 291.531 51.1094ZM305.047 54L309.875 31.1562H313.578L311.594 40.5H320.5L322.469 31.1562H326.156L321.328 54H317.625L319.812 43.6875H310.922L308.734 54H305.047ZM327.125 54L331.953 31.1562H335.656L333.688 40.3906H335.375C337.146 40.3906 338.562 40.651 339.625 41.1719C340.688 41.6823 341.453 42.3906 341.922 43.2969C342.401 44.2031 342.641 45.2396 342.641 46.4062C342.641 47.6979 342.422 48.8177 341.984 49.7656C341.547 50.7135 340.922 51.5 340.109 52.125C339.297 52.75 338.318 53.2188 337.172 53.5312C336.036 53.8438 334.766 54 333.359 54H327.125ZM331.484 50.875H333.703C334.609 50.875 335.385 50.776 336.031 50.5781C336.677 50.3802 337.208 50.099 337.625 49.7344C338.052 49.3594 338.365 48.9115 338.562 48.3906C338.771 47.8698 338.875 47.2812 338.875 46.625C338.875 45.5312 338.562 44.7448 337.938 44.2656C337.323 43.776 336.438 43.5312 335.281 43.5312H333.047L331.484 50.875Z" fill="white"/>
<defs>
<linearGradient id="paint0_linear_242_8" x1="-1.0492e-07" y1="74.5" x2="415" y2="16" gradientUnits="userSpaceOnUse">
<stop stop-color="#00D7D7" stop-opacity="0.2"/>
<stop offset="1" stop-color="#CA0AFF" stop-opacity="0.2"/>
</linearGradient>
<linearGradient id="paint1_linear_242_8" x1="0" y1="42" x2="414.75" y2="42" gradientUnits="userSpaceOnUse">
<stop stop-color="#CD06FF"/>
<stop offset="1" stop-color="#00D7D7"/>
</linearGradient>
</defs>
</svg>
