<svg width="330" height="90" viewBox="0 0 330 90" fill="none" xmlns="http://www.w3.org/2000/svg">
<mask id="path-1-inside-1_134_718" fill="white">
<path d="M0 34C0 15.2223 15.2223 0 34 0H330V56C330 74.7777 314.778 90 296 90H0V34Z"/>
</mask>
<path d="M0 34C0 15.2223 15.2223 0 34 0H330V56C330 74.7777 314.778 90 296 90H0V34Z" stroke="url(#paint0_linear_134_718)" stroke-width="90" mask="url(#path-1-inside-1_134_718)"/>
<path d="M125.094 53L129.922 30.1562H136.203C137.641 30.1562 138.88 30.3333 139.922 30.6875C140.964 31.0417 141.766 31.5938 142.328 32.3438C142.901 33.0938 143.188 34.0729 143.188 35.2812C143.188 36.3125 142.979 37.2292 142.562 38.0312C142.156 38.8229 141.573 39.4792 140.812 40C140.062 40.5104 139.161 40.8698 138.109 41.0781V41.2188C139.161 41.5 140.016 42.0208 140.672 42.7812C141.328 43.5312 141.656 44.5104 141.656 45.7188C141.656 47.3646 141.266 48.7292 140.484 49.8125C139.714 50.8854 138.656 51.6875 137.312 52.2188C135.979 52.7396 134.458 53 132.75 53H125.094ZM129.453 49.8594H132.953C133.953 49.8594 134.818 49.7031 135.547 49.3906C136.286 49.0781 136.854 48.6146 137.25 48C137.656 47.3854 137.859 46.6302 137.859 45.7344C137.859 44.7865 137.562 44.026 136.969 43.4531C136.385 42.8802 135.448 42.5938 134.156 42.5938H131L129.453 49.8594ZM131.625 39.5781H134.75C135.635 39.5781 136.422 39.4531 137.109 39.2031C137.807 38.9427 138.354 38.5469 138.75 38.0156C139.156 37.474 139.359 36.7865 139.359 35.9531C139.359 35.0781 139.078 34.4115 138.516 33.9531C137.964 33.4948 137.078 33.2656 135.859 33.2656H132.969L131.625 39.5781ZM141.781 53L150.969 40.9844L147.062 30.1562H150.891L153.688 38.6562L160.016 30.1562H164.141L155.547 41.2656L159.828 53H155.844L152.812 43.7344L145.906 53H141.781ZM172.188 53.3125C170.344 53.3125 168.792 52.9531 167.531 52.2344C166.281 51.5052 165.333 50.4792 164.688 49.1562C164.052 47.8333 163.734 46.2865 163.734 44.5156C163.734 43.2656 163.844 42.0417 164.062 40.8438C164.292 39.6354 164.625 38.4844 165.062 37.3906C165.5 36.2969 166.047 35.2865 166.703 34.3594C167.37 33.4323 168.141 32.6302 169.016 31.9531C169.891 31.2656 170.87 30.7344 171.953 30.3594C173.047 29.9844 174.24 29.7969 175.531 29.7969C178.198 29.7969 180.24 30.5833 181.656 32.1562C183.083 33.7292 183.797 35.8646 183.797 38.5625C183.797 39.8125 183.693 41.0469 183.484 42.2656C183.286 43.474 182.974 44.6302 182.547 45.7344C182.13 46.8281 181.604 47.8385 180.969 48.7656C180.333 49.6823 179.583 50.4792 178.719 51.1562C177.865 51.8333 176.891 52.3646 175.797 52.75C174.714 53.125 173.51 53.3125 172.188 53.3125ZM172.406 50.1094C173.167 50.1094 173.88 49.974 174.547 49.7031C175.214 49.4323 175.823 49.0521 176.375 48.5625C176.938 48.0625 177.438 47.4635 177.875 46.7656C178.323 46.0677 178.698 45.2917 179 44.4375C179.312 43.5833 179.552 42.6667 179.719 41.6875C179.885 40.6979 179.969 39.6667 179.969 38.5938C179.969 36.8542 179.557 35.4844 178.734 34.4844C177.922 33.4844 176.76 32.9844 175.25 32.9844C174.469 32.9844 173.734 33.125 173.047 33.4062C172.37 33.6771 171.745 34.0729 171.172 34.5938C170.599 35.1042 170.089 35.7135 169.641 36.4219C169.203 37.1198 168.828 37.8958 168.516 38.75C168.203 39.6042 167.964 40.5156 167.797 41.4844C167.641 42.4427 167.562 43.4427 167.562 44.4844C167.562 45.6719 167.75 46.6875 168.125 47.5312C168.51 48.375 169.062 49.0156 169.781 49.4531C170.51 49.8906 171.385 50.1094 172.406 50.1094ZM181.953 59.2969L183.953 49.7969H185.766C186.661 48.5365 187.552 47.151 188.438 45.6406C189.323 44.1198 190.172 42.5156 190.984 40.8281C191.807 39.1302 192.568 37.3802 193.266 35.5781C193.974 33.776 194.594 31.9688 195.125 30.1562H205.734L201.578 49.7969H204.453L202.438 59.2969H198.812L200.156 53H186.891L185.531 59.2969H181.953ZM189.906 49.7969H197.781L201.297 33.3594H197.625C197.25 34.526 196.781 35.8229 196.219 37.25C195.667 38.6667 195.047 40.125 194.359 41.625C193.672 43.125 192.948 44.5781 192.188 45.9844C191.438 47.3906 190.677 48.6615 189.906 49.7969Z" fill="white"/>
<defs>
<linearGradient id="paint0_linear_134_718" x1="165" y1="0" x2="165" y2="90" gradientUnits="userSpaceOnUse">
<stop stop-color="#CD06FF"/>
<stop offset="1" stop-color="#00D7D7"/>
</linearGradient>
</defs>
</svg>
