<svg width="338" height="98" viewBox="0 0 338 98" fill="none" xmlns="http://www.w3.org/2000/svg">
<g filter="url(#filter0_d_133_712)">
<path d="M38 1.5H332.5V56C332.5 73.9493 317.949 88.5 300 88.5H5.5V34C5.5 16.0507 20.0507 1.5 38 1.5Z" fill="url(#paint0_linear_133_712)" stroke="url(#paint1_linear_133_712)" stroke-width="3"/>
<path d="M129.094 53L133.922 30.1562H140.203C141.641 30.1562 142.88 30.3333 143.922 30.6875C144.964 31.0417 145.766 31.5938 146.328 32.3438C146.901 33.0938 147.188 34.0729 147.188 35.2812C147.188 36.3125 146.979 37.2292 146.562 38.0312C146.156 38.8229 145.573 39.4792 144.812 40C144.062 40.5104 143.161 40.8698 142.109 41.0781V41.2188C143.161 41.5 144.016 42.0208 144.672 42.7812C145.328 43.5312 145.656 44.5104 145.656 45.7188C145.656 47.3646 145.266 48.7292 144.484 49.8125C143.714 50.8854 142.656 51.6875 141.312 52.2188C139.979 52.7396 138.458 53 136.75 53H129.094ZM133.453 49.8594H136.953C137.953 49.8594 138.818 49.7031 139.547 49.3906C140.286 49.0781 140.854 48.6146 141.25 48C141.656 47.3854 141.859 46.6302 141.859 45.7344C141.859 44.7865 141.562 44.026 140.969 43.4531C140.385 42.8802 139.448 42.5938 138.156 42.5938H135L133.453 49.8594ZM135.625 39.5781H138.75C139.635 39.5781 140.422 39.4531 141.109 39.2031C141.807 38.9427 142.354 38.5469 142.75 38.0156C143.156 37.474 143.359 36.7865 143.359 35.9531C143.359 35.0781 143.078 34.4115 142.516 33.9531C141.964 33.4948 141.078 33.2656 139.859 33.2656H136.969L135.625 39.5781ZM145.781 53L154.969 40.9844L151.062 30.1562H154.891L157.688 38.6562L164.016 30.1562H168.141L159.547 41.2656L163.828 53H159.844L156.812 43.7344L149.906 53H145.781ZM176.188 53.3125C174.344 53.3125 172.792 52.9531 171.531 52.2344C170.281 51.5052 169.333 50.4792 168.688 49.1562C168.052 47.8333 167.734 46.2865 167.734 44.5156C167.734 43.2656 167.844 42.0417 168.062 40.8438C168.292 39.6354 168.625 38.4844 169.062 37.3906C169.5 36.2969 170.047 35.2865 170.703 34.3594C171.37 33.4323 172.141 32.6302 173.016 31.9531C173.891 31.2656 174.87 30.7344 175.953 30.3594C177.047 29.9844 178.24 29.7969 179.531 29.7969C182.198 29.7969 184.24 30.5833 185.656 32.1562C187.083 33.7292 187.797 35.8646 187.797 38.5625C187.797 39.8125 187.693 41.0469 187.484 42.2656C187.286 43.474 186.974 44.6302 186.547 45.7344C186.13 46.8281 185.604 47.8385 184.969 48.7656C184.333 49.6823 183.583 50.4792 182.719 51.1562C181.865 51.8333 180.891 52.3646 179.797 52.75C178.714 53.125 177.51 53.3125 176.188 53.3125ZM176.406 50.1094C177.167 50.1094 177.88 49.974 178.547 49.7031C179.214 49.4323 179.823 49.0521 180.375 48.5625C180.938 48.0625 181.438 47.4635 181.875 46.7656C182.323 46.0677 182.698 45.2917 183 44.4375C183.312 43.5833 183.552 42.6667 183.719 41.6875C183.885 40.6979 183.969 39.6667 183.969 38.5938C183.969 36.8542 183.557 35.4844 182.734 34.4844C181.922 33.4844 180.76 32.9844 179.25 32.9844C178.469 32.9844 177.734 33.125 177.047 33.4062C176.37 33.6771 175.745 34.0729 175.172 34.5938C174.599 35.1042 174.089 35.7135 173.641 36.4219C173.203 37.1198 172.828 37.8958 172.516 38.75C172.203 39.6042 171.964 40.5156 171.797 41.4844C171.641 42.4427 171.562 43.4427 171.562 44.4844C171.562 45.6719 171.75 46.6875 172.125 47.5312C172.51 48.375 173.062 49.0156 173.781 49.4531C174.51 49.8906 175.385 50.1094 176.406 50.1094ZM185.953 59.2969L187.953 49.7969H189.766C190.661 48.5365 191.552 47.151 192.438 45.6406C193.323 44.1198 194.172 42.5156 194.984 40.8281C195.807 39.1302 196.568 37.3802 197.266 35.5781C197.974 33.776 198.594 31.9688 199.125 30.1562H209.734L205.578 49.7969H208.453L206.438 59.2969H202.812L204.156 53H190.891L189.531 59.2969H185.953ZM193.906 49.7969H201.781L205.297 33.3594H201.625C201.25 34.526 200.781 35.8229 200.219 37.25C199.667 38.6667 199.047 40.125 198.359 41.625C197.672 43.125 196.948 44.5781 196.188 45.9844C195.438 47.3906 194.677 48.6615 193.906 49.7969Z" fill="white"/>
</g>
<defs>
<filter id="filter0_d_133_712" x="0" y="0" width="338" height="98" filterUnits="userSpaceOnUse" color-interpolation-filters="sRGB">
<feFlood flood-opacity="0" result="BackgroundImageFix"/>
<feColorMatrix in="SourceAlpha" type="matrix" values="0 0 0 0 0 0 0 0 0 0 0 0 0 0 0 0 0 0 127 0" result="hardAlpha"/>
<feOffset dy="4"/>
<feGaussianBlur stdDeviation="2"/>
<feComposite in2="hardAlpha" operator="out"/>
<feColorMatrix type="matrix" values="0 0 0 0 0 0 0 0 0 0 0 0 0 0 0 0 0 0 0.25 0"/>
<feBlend mode="normal" in2="BackgroundImageFix" result="effect1_dropShadow_133_712"/>
<feBlend mode="normal" in="SourceGraphic" in2="effect1_dropShadow_133_712" result="shape"/>
</filter>
<linearGradient id="paint0_linear_133_712" x1="4" y1="90" x2="334" y2="-5.66244e-06" gradientUnits="userSpaceOnUse">
<stop stop-color="#00D7D7" stop-opacity="0.2"/>
<stop offset="1" stop-color="#CA0AFF" stop-opacity="0.2"/>
</linearGradient>
<linearGradient id="paint1_linear_133_712" x1="169" y1="0" x2="169" y2="90" gradientUnits="userSpaceOnUse">
<stop stop-color="#CD06FF"/>
<stop offset="1" stop-color="#00D7D7"/>
</linearGradient>
</defs>
</svg>
