<svg width="330" height="90" viewBox="0 0 330 90" fill="none" xmlns="http://www.w3.org/2000/svg">
<mask id="path-1-inside-1_199_9" fill="white">
<path d="M0 34C0 15.2223 15.2223 0 34 0H330V56C330 74.7777 314.778 90 296 90H0V34Z"/>
</mask>
<path d="M0 34C0 15.2223 15.2223 0 34 0H330V56C330 74.7777 314.778 90 296 90H0V34Z" stroke="url(#paint0_linear_199_9)" stroke-opacity="0.66" stroke-width="90" mask="url(#path-1-inside-1_199_9)"/>
<path d="M59.0938 57L63.9219 34.1562H69.6719C71.4115 34.1562 72.8073 34.4167 73.8594 34.9375C74.9219 35.4583 75.6927 36.1927 76.1719 37.1406C76.6615 38.0781 76.9062 39.1771 76.9062 40.4375C76.9062 41.75 76.6719 42.9062 76.2031 43.9062C75.7448 44.8958 75.0833 45.7292 74.2188 46.4062C73.3542 47.0729 72.3073 47.5781 71.0781 47.9219C69.8594 48.2552 68.4896 48.4219 66.9688 48.4219H64.5938L62.7812 57H59.0938ZM65.2656 45.3281H67.3594C68.5469 45.3281 69.5729 45.151 70.4375 44.7969C71.3021 44.4323 71.9688 43.8958 72.4375 43.1875C72.9167 42.4688 73.1562 41.5885 73.1562 40.5469C73.1562 39.4115 72.8438 38.5833 72.2188 38.0625C71.5938 37.5312 70.651 37.2656 69.3906 37.2656H66.9688L65.2656 45.3281ZM77.9062 57L82.7344 34.1562H94.9062L94.2344 37.3125H85.7656L84.4531 43.5156H92.375L91.7188 46.6562H83.7969L82.2656 53.8281H90.7344L90.0625 57H77.9062ZM94.8438 57L99.6719 34.1562H111.844L111.172 37.3125H102.672L98.5 57H94.8438ZM110.562 57L115.391 34.1562H118.844L116.281 46.1719C116.156 46.7448 116.01 47.3854 115.844 48.0938C115.688 48.7917 115.531 49.474 115.375 50.1406C115.219 50.7969 115.083 51.349 114.969 51.7969H115.078L128.453 34.1562H132.875L128.047 57H124.641L127.188 44.9688C127.333 44.3125 127.479 43.6458 127.625 42.9688C127.771 42.2812 127.917 41.6094 128.062 40.9531C128.219 40.2865 128.37 39.6615 128.516 39.0781L128.422 39.0469L115.016 57H110.562ZM143.125 57.3125C141.354 57.3125 139.854 56.9531 138.625 56.2344C137.406 55.5052 136.479 54.4792 135.844 53.1562C135.208 51.8333 134.891 50.2656 134.891 48.4531C134.891 47.0781 135.047 45.6927 135.359 44.2969C135.682 42.901 136.167 41.5781 136.812 40.3281C137.458 39.0677 138.271 37.9531 139.25 36.9844C140.229 36.0052 141.375 35.2344 142.688 34.6719C144.01 34.099 145.505 33.8125 147.172 33.8125C148.443 33.8125 149.552 33.9323 150.5 34.1719C151.458 34.4115 152.391 34.776 153.297 35.2656L151.844 38.3125C151.177 37.9375 150.469 37.625 149.719 37.375C148.969 37.125 148.12 37 147.172 37C146.016 37 144.979 37.2188 144.062 37.6562C143.156 38.0938 142.365 38.6927 141.688 39.4531C141.021 40.2135 140.469 41.0833 140.031 42.0625C139.594 43.0312 139.266 44.0521 139.047 45.125C138.828 46.1875 138.719 47.2448 138.719 48.2969C138.719 50.1615 139.151 51.599 140.016 52.6094C140.88 53.6094 142.151 54.1094 143.828 54.1094C144.714 54.1094 145.589 54.0104 146.453 53.8125C147.328 53.6146 148.188 53.3594 149.031 53.0469V56.2344C148.302 56.5052 147.453 56.7552 146.484 56.9844C145.526 57.2031 144.406 57.3125 143.125 57.3125ZM156.516 57L160.672 37.3438H154.734L155.406 34.1562H171L170.344 37.3438H164.391L160.234 57H156.516ZM169.562 57L174.391 34.1562H180.141C181.88 34.1562 183.276 34.4167 184.328 34.9375C185.391 35.4583 186.161 36.1927 186.641 37.1406C187.13 38.0781 187.375 39.1771 187.375 40.4375C187.375 41.75 187.141 42.9062 186.672 43.9062C186.214 44.8958 185.552 45.7292 184.688 46.4062C183.823 47.0729 182.776 47.5781 181.547 47.9219C180.328 48.2552 178.958 48.4219 177.438 48.4219H175.062L173.25 57H169.562ZM175.734 45.3281H177.828C179.016 45.3281 180.042 45.151 180.906 44.7969C181.771 44.4323 182.438 43.8958 182.906 43.1875C183.385 42.4688 183.625 41.5885 183.625 40.5469C183.625 39.4115 183.312 38.5833 182.688 38.0625C182.062 37.5312 181.12 37.2656 179.859 37.2656H177.438L175.734 45.3281ZM185.422 57L197.672 34.1562H201.969L204.562 57H200.938L200.297 50.6406H192.656L189.375 57H185.422ZM194.266 47.4219H200.047L199.531 41.8125C199.479 41.1146 199.422 40.3802 199.359 39.6094C199.297 38.8281 199.266 38.0885 199.266 37.3906H199.172C198.911 38.0677 198.609 38.7708 198.266 39.5C197.922 40.2188 197.552 40.9583 197.156 41.7188L194.266 47.4219ZM221.359 63.2969L222.719 57H207.391L212.219 34.1562H215.953L211.781 53.7969H220.391L224.547 34.1562H228.25L224.078 53.8906H227L224.984 63.2969H221.359ZM229.875 57L234.703 34.1562H238.156L235.594 46.1719C235.469 46.7448 235.323 47.3854 235.156 48.0938C235 48.7917 234.844 49.474 234.688 50.1406C234.531 50.7969 234.396 51.349 234.281 51.7969H234.391L247.766 34.1562H252.188L247.359 57H243.953L246.5 44.9688C246.646 44.3125 246.792 43.6458 246.938 42.9688C247.083 42.2812 247.229 41.6094 247.375 40.9531C247.531 40.2865 247.682 39.6615 247.828 39.0781L247.734 39.0469L234.328 57H229.875ZM250.5 57L258.547 46.6406C257.641 46.1094 256.901 45.4531 256.328 44.6719C255.755 43.8802 255.469 42.8229 255.469 41.5C255.469 40.2812 255.677 39.2188 256.094 38.3125C256.521 37.3958 257.125 36.6302 257.906 36.0156C258.688 35.401 259.625 34.9375 260.719 34.625C261.812 34.3125 263.036 34.1562 264.391 34.1562H271.172L266.359 57H262.641L264.578 47.8438H261.812L254.938 57H250.5ZM263.125 44.7344H265.234L266.828 37.2656H264.344C263.594 37.2656 262.911 37.3438 262.297 37.5C261.682 37.6562 261.151 37.9062 260.703 38.25C260.266 38.5833 259.927 39.0156 259.688 39.5469C259.448 40.0677 259.328 40.6979 259.328 41.4375C259.328 42.5 259.672 43.3177 260.359 43.8906C261.047 44.4531 261.969 44.7344 263.125 44.7344Z" fill="white"/>
<defs>
<linearGradient id="paint0_linear_199_9" x1="165" y1="0" x2="165" y2="90" gradientUnits="userSpaceOnUse">
<stop stop-color="#CD06FF"/>
<stop offset="1" stop-color="#00D7D7"/>
</linearGradient>
</defs>
</svg>
