<svg width="338" height="98" viewBox="0 0 338 98" fill="none" xmlns="http://www.w3.org/2000/svg">
<g filter="url(#filter0_d_199_6)">
<path d="M38 1.5H332.5V56C332.5 73.9493 317.949 88.5 300 88.5H5.5V34C5.5 16.0507 20.0507 1.5 38 1.5Z" fill="url(#paint0_linear_199_6)" stroke="url(#paint1_linear_199_6)" stroke-width="3"/>
<path d="M63.0938 57L67.9219 34.1562H73.6719C75.4115 34.1562 76.8073 34.4167 77.8594 34.9375C78.9219 35.4583 79.6927 36.1927 80.1719 37.1406C80.6615 38.0781 80.9062 39.1771 80.9062 40.4375C80.9062 41.75 80.6719 42.9062 80.2031 43.9062C79.7448 44.8958 79.0833 45.7292 78.2188 46.4062C77.3542 47.0729 76.3073 47.5781 75.0781 47.9219C73.8594 48.2552 72.4896 48.4219 70.9688 48.4219H68.5938L66.7812 57H63.0938ZM69.2656 45.3281H71.3594C72.5469 45.3281 73.5729 45.151 74.4375 44.7969C75.3021 44.4323 75.9688 43.8958 76.4375 43.1875C76.9167 42.4688 77.1562 41.5885 77.1562 40.5469C77.1562 39.4115 76.8438 38.5833 76.2188 38.0625C75.5938 37.5312 74.651 37.2656 73.3906 37.2656H70.9688L69.2656 45.3281ZM81.9062 57L86.7344 34.1562H98.9062L98.2344 37.3125H89.7656L88.4531 43.5156H96.375L95.7188 46.6562H87.7969L86.2656 53.8281H94.7344L94.0625 57H81.9062ZM98.8438 57L103.672 34.1562H115.844L115.172 37.3125H106.672L102.5 57H98.8438ZM114.562 57L119.391 34.1562H122.844L120.281 46.1719C120.156 46.7448 120.01 47.3854 119.844 48.0938C119.688 48.7917 119.531 49.474 119.375 50.1406C119.219 50.7969 119.083 51.349 118.969 51.7969H119.078L132.453 34.1562H136.875L132.047 57H128.641L131.188 44.9688C131.333 44.3125 131.479 43.6458 131.625 42.9688C131.771 42.2812 131.917 41.6094 132.062 40.9531C132.219 40.2865 132.37 39.6615 132.516 39.0781L132.422 39.0469L119.016 57H114.562ZM147.125 57.3125C145.354 57.3125 143.854 56.9531 142.625 56.2344C141.406 55.5052 140.479 54.4792 139.844 53.1562C139.208 51.8333 138.891 50.2656 138.891 48.4531C138.891 47.0781 139.047 45.6927 139.359 44.2969C139.682 42.901 140.167 41.5781 140.812 40.3281C141.458 39.0677 142.271 37.9531 143.25 36.9844C144.229 36.0052 145.375 35.2344 146.688 34.6719C148.01 34.099 149.505 33.8125 151.172 33.8125C152.443 33.8125 153.552 33.9323 154.5 34.1719C155.458 34.4115 156.391 34.776 157.297 35.2656L155.844 38.3125C155.177 37.9375 154.469 37.625 153.719 37.375C152.969 37.125 152.12 37 151.172 37C150.016 37 148.979 37.2188 148.062 37.6562C147.156 38.0938 146.365 38.6927 145.688 39.4531C145.021 40.2135 144.469 41.0833 144.031 42.0625C143.594 43.0312 143.266 44.0521 143.047 45.125C142.828 46.1875 142.719 47.2448 142.719 48.2969C142.719 50.1615 143.151 51.599 144.016 52.6094C144.88 53.6094 146.151 54.1094 147.828 54.1094C148.714 54.1094 149.589 54.0104 150.453 53.8125C151.328 53.6146 152.188 53.3594 153.031 53.0469V56.2344C152.302 56.5052 151.453 56.7552 150.484 56.9844C149.526 57.2031 148.406 57.3125 147.125 57.3125ZM160.516 57L164.672 37.3438H158.734L159.406 34.1562H175L174.344 37.3438H168.391L164.234 57H160.516ZM173.562 57L178.391 34.1562H184.141C185.88 34.1562 187.276 34.4167 188.328 34.9375C189.391 35.4583 190.161 36.1927 190.641 37.1406C191.13 38.0781 191.375 39.1771 191.375 40.4375C191.375 41.75 191.141 42.9062 190.672 43.9062C190.214 44.8958 189.552 45.7292 188.688 46.4062C187.823 47.0729 186.776 47.5781 185.547 47.9219C184.328 48.2552 182.958 48.4219 181.438 48.4219H179.062L177.25 57H173.562ZM179.734 45.3281H181.828C183.016 45.3281 184.042 45.151 184.906 44.7969C185.771 44.4323 186.438 43.8958 186.906 43.1875C187.385 42.4688 187.625 41.5885 187.625 40.5469C187.625 39.4115 187.312 38.5833 186.688 38.0625C186.062 37.5312 185.12 37.2656 183.859 37.2656H181.438L179.734 45.3281ZM189.422 57L201.672 34.1562H205.969L208.562 57H204.938L204.297 50.6406H196.656L193.375 57H189.422ZM198.266 47.4219H204.047L203.531 41.8125C203.479 41.1146 203.422 40.3802 203.359 39.6094C203.297 38.8281 203.266 38.0885 203.266 37.3906H203.172C202.911 38.0677 202.609 38.7708 202.266 39.5C201.922 40.2188 201.552 40.9583 201.156 41.7188L198.266 47.4219ZM225.359 63.2969L226.719 57H211.391L216.219 34.1562H219.953L215.781 53.7969H224.391L228.547 34.1562H232.25L228.078 53.8906H231L228.984 63.2969H225.359ZM233.875 57L238.703 34.1562H242.156L239.594 46.1719C239.469 46.7448 239.323 47.3854 239.156 48.0938C239 48.7917 238.844 49.474 238.688 50.1406C238.531 50.7969 238.396 51.349 238.281 51.7969H238.391L251.766 34.1562H256.188L251.359 57H247.953L250.5 44.9688C250.646 44.3125 250.792 43.6458 250.938 42.9688C251.083 42.2812 251.229 41.6094 251.375 40.9531C251.531 40.2865 251.682 39.6615 251.828 39.0781L251.734 39.0469L238.328 57H233.875ZM254.5 57L262.547 46.6406C261.641 46.1094 260.901 45.4531 260.328 44.6719C259.755 43.8802 259.469 42.8229 259.469 41.5C259.469 40.2812 259.677 39.2188 260.094 38.3125C260.521 37.3958 261.125 36.6302 261.906 36.0156C262.688 35.401 263.625 34.9375 264.719 34.625C265.812 34.3125 267.036 34.1562 268.391 34.1562H275.172L270.359 57H266.641L268.578 47.8438H265.812L258.938 57H254.5ZM267.125 44.7344H269.234L270.828 37.2656H268.344C267.594 37.2656 266.911 37.3438 266.297 37.5C265.682 37.6562 265.151 37.9062 264.703 38.25C264.266 38.5833 263.927 39.0156 263.688 39.5469C263.448 40.0677 263.328 40.6979 263.328 41.4375C263.328 42.5 263.672 43.3177 264.359 43.8906C265.047 44.4531 265.969 44.7344 267.125 44.7344Z" fill="white"/>
</g>
<defs>
<filter id="filter0_d_199_6" x="0" y="0" width="338" height="98" filterUnits="userSpaceOnUse" color-interpolation-filters="sRGB">
<feFlood flood-opacity="0" result="BackgroundImageFix"/>
<feColorMatrix in="SourceAlpha" type="matrix" values="0 0 0 0 0 0 0 0 0 0 0 0 0 0 0 0 0 0 127 0" result="hardAlpha"/>
<feOffset dy="4"/>
<feGaussianBlur stdDeviation="2"/>
<feComposite in2="hardAlpha" operator="out"/>
<feColorMatrix type="matrix" values="0 0 0 0 0 0 0 0 0 0 0 0 0 0 0 0 0 0 0.25 0"/>
<feBlend mode="normal" in2="BackgroundImageFix" result="effect1_dropShadow_199_6"/>
<feBlend mode="normal" in="SourceGraphic" in2="effect1_dropShadow_199_6" result="shape"/>
</filter>
<linearGradient id="paint0_linear_199_6" x1="4" y1="90" x2="334" y2="-5.66244e-06" gradientUnits="userSpaceOnUse">
<stop stop-color="#00D7D7" stop-opacity="0.2"/>
<stop offset="1" stop-color="#CA0AFF" stop-opacity="0.2"/>
</linearGradient>
<linearGradient id="paint1_linear_199_6" x1="169" y1="0" x2="169" y2="90" gradientUnits="userSpaceOnUse">
<stop stop-color="#CD06FF"/>
<stop offset="1" stop-color="#00D7D7"/>
</linearGradient>
</defs>
</svg>
