<svg width="330" height="90" viewBox="0 0 330 90" fill="none" xmlns="http://www.w3.org/2000/svg">
<path d="M34 1.5H328.5V56C328.5 73.9493 313.949 88.5 296 88.5H1.5V34C1.5 16.0507 16.0507 1.5 34 1.5Z" stroke="url(#paint0_linear_199_2)" stroke-width="3"/>
<path d="M59.0938 55L63.9219 32.1562H69.6719C71.4115 32.1562 72.8073 32.4167 73.8594 32.9375C74.9219 33.4583 75.6927 34.1927 76.1719 35.1406C76.6615 36.0781 76.9062 37.1771 76.9062 38.4375C76.9062 39.75 76.6719 40.9062 76.2031 41.9062C75.7448 42.8958 75.0833 43.7292 74.2188 44.4062C73.3542 45.0729 72.3073 45.5781 71.0781 45.9219C69.8594 46.2552 68.4896 46.4219 66.9688 46.4219H64.5938L62.7812 55H59.0938ZM65.2656 43.3281H67.3594C68.5469 43.3281 69.5729 43.151 70.4375 42.7969C71.3021 42.4323 71.9688 41.8958 72.4375 41.1875C72.9167 40.4688 73.1562 39.5885 73.1562 38.5469C73.1562 37.4115 72.8438 36.5833 72.2188 36.0625C71.5938 35.5312 70.651 35.2656 69.3906 35.2656H66.9688L65.2656 43.3281ZM77.9062 55L82.7344 32.1562H94.9062L94.2344 35.3125H85.7656L84.4531 41.5156H92.375L91.7188 44.6562H83.7969L82.2656 51.8281H90.7344L90.0625 55H77.9062ZM94.8438 55L99.6719 32.1562H111.844L111.172 35.3125H102.672L98.5 55H94.8438ZM110.562 55L115.391 32.1562H118.844L116.281 44.1719C116.156 44.7448 116.01 45.3854 115.844 46.0938C115.688 46.7917 115.531 47.474 115.375 48.1406C115.219 48.7969 115.083 49.349 114.969 49.7969H115.078L128.453 32.1562H132.875L128.047 55H124.641L127.188 42.9688C127.333 42.3125 127.479 41.6458 127.625 40.9688C127.771 40.2812 127.917 39.6094 128.062 38.9531C128.219 38.2865 128.37 37.6615 128.516 37.0781L128.422 37.0469L115.016 55H110.562ZM143.125 55.3125C141.354 55.3125 139.854 54.9531 138.625 54.2344C137.406 53.5052 136.479 52.4792 135.844 51.1562C135.208 49.8333 134.891 48.2656 134.891 46.4531C134.891 45.0781 135.047 43.6927 135.359 42.2969C135.682 40.901 136.167 39.5781 136.812 38.3281C137.458 37.0677 138.271 35.9531 139.25 34.9844C140.229 34.0052 141.375 33.2344 142.688 32.6719C144.01 32.099 145.505 31.8125 147.172 31.8125C148.443 31.8125 149.552 31.9323 150.5 32.1719C151.458 32.4115 152.391 32.776 153.297 33.2656L151.844 36.3125C151.177 35.9375 150.469 35.625 149.719 35.375C148.969 35.125 148.12 35 147.172 35C146.016 35 144.979 35.2188 144.062 35.6562C143.156 36.0938 142.365 36.6927 141.688 37.4531C141.021 38.2135 140.469 39.0833 140.031 40.0625C139.594 41.0312 139.266 42.0521 139.047 43.125C138.828 44.1875 138.719 45.2448 138.719 46.2969C138.719 48.1615 139.151 49.599 140.016 50.6094C140.88 51.6094 142.151 52.1094 143.828 52.1094C144.714 52.1094 145.589 52.0104 146.453 51.8125C147.328 51.6146 148.188 51.3594 149.031 51.0469V54.2344C148.302 54.5052 147.453 54.7552 146.484 54.9844C145.526 55.2031 144.406 55.3125 143.125 55.3125ZM156.516 55L160.672 35.3438H154.734L155.406 32.1562H171L170.344 35.3438H164.391L160.234 55H156.516ZM169.562 55L174.391 32.1562H180.141C181.88 32.1562 183.276 32.4167 184.328 32.9375C185.391 33.4583 186.161 34.1927 186.641 35.1406C187.13 36.0781 187.375 37.1771 187.375 38.4375C187.375 39.75 187.141 40.9062 186.672 41.9062C186.214 42.8958 185.552 43.7292 184.688 44.4062C183.823 45.0729 182.776 45.5781 181.547 45.9219C180.328 46.2552 178.958 46.4219 177.438 46.4219H175.062L173.25 55H169.562ZM175.734 43.3281H177.828C179.016 43.3281 180.042 43.151 180.906 42.7969C181.771 42.4323 182.438 41.8958 182.906 41.1875C183.385 40.4688 183.625 39.5885 183.625 38.5469C183.625 37.4115 183.312 36.5833 182.688 36.0625C182.062 35.5312 181.12 35.2656 179.859 35.2656H177.438L175.734 43.3281ZM185.422 55L197.672 32.1562H201.969L204.562 55H200.938L200.297 48.6406H192.656L189.375 55H185.422ZM194.266 45.4219H200.047L199.531 39.8125C199.479 39.1146 199.422 38.3802 199.359 37.6094C199.297 36.8281 199.266 36.0885 199.266 35.3906H199.172C198.911 36.0677 198.609 36.7708 198.266 37.5C197.922 38.2188 197.552 38.9583 197.156 39.7188L194.266 45.4219ZM221.359 61.2969L222.719 55H207.391L212.219 32.1562H215.953L211.781 51.7969H220.391L224.547 32.1562H228.25L224.078 51.8906H227L224.984 61.2969H221.359ZM229.875 55L234.703 32.1562H238.156L235.594 44.1719C235.469 44.7448 235.323 45.3854 235.156 46.0938C235 46.7917 234.844 47.474 234.688 48.1406C234.531 48.7969 234.396 49.349 234.281 49.7969H234.391L247.766 32.1562H252.188L247.359 55H243.953L246.5 42.9688C246.646 42.3125 246.792 41.6458 246.938 40.9688C247.083 40.2812 247.229 39.6094 247.375 38.9531C247.531 38.2865 247.682 37.6615 247.828 37.0781L247.734 37.0469L234.328 55H229.875ZM250.5 55L258.547 44.6406C257.641 44.1094 256.901 43.4531 256.328 42.6719C255.755 41.8802 255.469 40.8229 255.469 39.5C255.469 38.2812 255.677 37.2188 256.094 36.3125C256.521 35.3958 257.125 34.6302 257.906 34.0156C258.688 33.401 259.625 32.9375 260.719 32.625C261.812 32.3125 263.036 32.1562 264.391 32.1562H271.172L266.359 55H262.641L264.578 45.8438H261.812L254.938 55H250.5ZM263.125 42.7344H265.234L266.828 35.2656H264.344C263.594 35.2656 262.911 35.3438 262.297 35.5C261.682 35.6562 261.151 35.9062 260.703 36.25C260.266 36.5833 259.927 37.0156 259.688 37.5469C259.448 38.0677 259.328 38.6979 259.328 39.4375C259.328 40.5 259.672 41.3177 260.359 41.8906C261.047 42.4531 261.969 42.7344 263.125 42.7344Z" fill="white"/>
<defs>
<linearGradient id="paint0_linear_199_2" x1="165" y1="0" x2="165" y2="90" gradientUnits="userSpaceOnUse">
<stop stop-color="#CD06FF"/>
<stop offset="1" stop-color="#00D7D7"/>
</linearGradient>
</defs>
</svg>
