<svg width="330" height="85" viewBox="0 0 330 85" fill="none" xmlns="http://www.w3.org/2000/svg">
<path d="M1.5 34C1.5 16.0508 16.0507 1.5 34 1.5H328.5V50.1463C328.5 68.0956 313.949 82.6463 296 82.6463H1.5V34Z" stroke="url(#paint0_linear_22_687)" stroke-width="3"/>
<path d="M41.6875 54.3125C40.3021 54.3125 39.099 54.2083 38.0781 54C37.0573 53.8021 36.1354 53.4896 35.3125 53.0625V49.75C36.1771 50.2396 37.1615 50.625 38.2656 50.9062C39.3698 51.1771 40.4688 51.3125 41.5625 51.3125C42.5 51.3125 43.3281 51.2135 44.0469 51.0156C44.7656 50.8177 45.3698 50.5365 45.8594 50.1719C46.3594 49.7969 46.7344 49.3438 46.9844 48.8125C47.2448 48.2708 47.375 47.6615 47.375 46.9844C47.375 45.7969 46.9323 44.9427 46.0469 44.4219C45.1615 43.901 43.9167 43.6406 42.3125 43.6406H39.5781L40.2031 40.6719H42.7344C43.7865 40.6719 44.7812 40.5521 45.7188 40.3125C46.6667 40.0625 47.4375 39.651 48.0312 39.0781C48.6354 38.4948 48.9375 37.6927 48.9375 36.6719C48.9375 35.7656 48.6458 35.0729 48.0625 34.5938C47.4896 34.1042 46.6823 33.8594 45.6406 33.8594C44.651 33.8594 43.6875 34.0365 42.75 34.3906C41.8229 34.7344 40.9062 35.1979 40 35.7812L38.6094 33.1875C39.7656 32.4375 40.9479 31.8594 42.1562 31.4531C43.375 31.0365 44.8229 30.8281 46.5 30.8281C47.8021 30.8281 48.9219 31.0573 49.8594 31.5156C50.7969 31.9635 51.5156 32.5833 52.0156 33.375C52.5156 34.1562 52.7656 35.0417 52.7656 36.0312C52.7656 37.2083 52.5052 38.2188 51.9844 39.0625C51.474 39.9062 50.75 40.5781 49.8125 41.0781C48.8854 41.5781 47.8073 41.9115 46.5781 42.0781V42.1719C47.5365 42.2969 48.3594 42.5781 49.0469 43.0156C49.7344 43.4531 50.2604 44.0208 50.625 44.7188C51 45.4167 51.1875 46.224 51.1875 47.1406C51.1875 48.2031 50.9844 49.1771 50.5781 50.0625C50.1823 50.9375 49.5885 51.6927 48.7969 52.3281C48.0052 52.9635 47.0156 53.4531 45.8281 53.7969C44.6406 54.1406 43.2604 54.3125 41.6875 54.3125ZM51.2656 54L63.5156 31.1562H67.8125L70.4062 54H66.7812L66.1406 47.6406H58.5L55.2188 54H51.2656ZM60.1094 44.4219H65.8906L65.375 38.8125C65.3229 38.1146 65.2656 37.3802 65.2031 36.6094C65.1406 35.8281 65.1094 35.0885 65.1094 34.3906H65.0156C64.7552 35.0677 64.4531 35.7708 64.1094 36.5C63.7656 37.2188 63.3958 37.9583 63 38.7188L60.1094 44.4219ZM73.25 54L78.0781 31.1562H90.2812L89.6094 34.3125H81.0938L79.8125 40.3906H81.5625C83.3229 40.3906 84.7344 40.651 85.7969 41.1719C86.8594 41.6823 87.6302 42.3906 88.1094 43.2969C88.5885 44.2031 88.8281 45.2396 88.8281 46.4062C88.8281 47.6979 88.6094 48.8177 88.1719 49.7656C87.7344 50.7135 87.1042 51.5 86.2812 52.125C85.4688 52.75 84.4948 53.2188 83.3594 53.5312C82.224 53.8438 80.9531 54 79.5469 54H73.25ZM77.5781 50.875H79.8906C81.099 50.875 82.0781 50.7031 82.8281 50.3594C83.5885 50.0156 84.151 49.526 84.5156 48.8906C84.8802 48.2448 85.0625 47.4896 85.0625 46.625C85.0625 45.5312 84.75 44.7448 84.125 44.2656C83.5104 43.776 82.6198 43.5312 81.4531 43.5312H79.1562L77.5781 50.875ZM91.7812 54L96.6094 31.1562H102.359C104.099 31.1562 105.495 31.4167 106.547 31.9375C107.609 32.4583 108.38 33.1927 108.859 34.1406C109.349 35.0781 109.594 36.1771 109.594 37.4375C109.594 38.75 109.359 39.9062 108.891 40.9062C108.432 41.8958 107.771 42.7292 106.906 43.4062C106.042 44.0729 104.995 44.5781 103.766 44.9219C102.547 45.2552 101.177 45.4219 99.6562 45.4219H97.2812L95.4688 54H91.7812ZM97.9531 42.3281H100.047C101.234 42.3281 102.26 42.151 103.125 41.7969C103.99 41.4323 104.656 40.8958 105.125 40.1875C105.604 39.4688 105.844 38.5885 105.844 37.5469C105.844 36.4115 105.531 35.5833 104.906 35.0625C104.281 34.5312 103.339 34.2656 102.078 34.2656H99.6562L97.9531 42.3281ZM120.094 54.3125C118.25 54.3125 116.698 53.9531 115.438 53.2344C114.188 52.5052 113.24 51.4792 112.594 50.1562C111.958 48.8333 111.641 47.2865 111.641 45.5156C111.641 44.2656 111.75 43.0417 111.969 41.8438C112.198 40.6354 112.531 39.4844 112.969 38.3906C113.406 37.2969 113.953 36.2865 114.609 35.3594C115.276 34.4323 116.047 33.6302 116.922 32.9531C117.797 32.2656 118.776 31.7344 119.859 31.3594C120.953 30.9844 122.146 30.7969 123.438 30.7969C126.104 30.7969 128.146 31.5833 129.562 33.1562C130.99 34.7292 131.703 36.8646 131.703 39.5625C131.703 40.8125 131.599 42.0469 131.391 43.2656C131.193 44.474 130.88 45.6302 130.453 46.7344C130.036 47.8281 129.51 48.8385 128.875 49.7656C128.24 50.6823 127.49 51.4792 126.625 52.1562C125.771 52.8333 124.797 53.3646 123.703 53.75C122.62 54.125 121.417 54.3125 120.094 54.3125ZM120.312 51.1094C121.073 51.1094 121.786 50.974 122.453 50.7031C123.12 50.4323 123.729 50.0521 124.281 49.5625C124.844 49.0625 125.344 48.4635 125.781 47.7656C126.229 47.0677 126.604 46.2917 126.906 45.4375C127.219 44.5833 127.458 43.6667 127.625 42.6875C127.792 41.6979 127.875 40.6667 127.875 39.5938C127.875 37.8542 127.464 36.4844 126.641 35.4844C125.828 34.4844 124.667 33.9844 123.156 33.9844C122.375 33.9844 121.641 34.125 120.953 34.4062C120.276 34.6771 119.651 35.0729 119.078 35.5938C118.505 36.1042 117.995 36.7135 117.547 37.4219C117.109 38.1198 116.734 38.8958 116.422 39.75C116.109 40.6042 115.87 41.5156 115.703 42.4844C115.547 43.4427 115.469 44.4427 115.469 45.4844C115.469 46.6719 115.656 47.6875 116.031 48.5312C116.417 49.375 116.969 50.0156 117.688 50.4531C118.417 50.8906 119.292 51.1094 120.312 51.1094ZM133.828 54L138.656 31.1562H142.359L140.375 40.5H149.281L151.25 31.1562H154.938L150.109 54H146.406L148.594 43.6875H139.703L137.516 54H133.828ZM155.906 54L160.734 31.1562H164.188L161.625 43.1719C161.5 43.7448 161.354 44.3854 161.188 45.0938C161.031 45.7917 160.875 46.474 160.719 47.1406C160.562 47.7969 160.427 48.349 160.312 48.7969H160.422L173.797 31.1562H178.219L173.391 54H169.984L172.531 41.9688C172.677 41.3125 172.823 40.6458 172.969 39.9688C173.115 39.2812 173.26 38.6094 173.406 37.9531C173.562 37.2865 173.714 36.6615 173.859 36.0781L173.766 36.0469L160.359 54H155.906ZM179.188 54L184.016 31.1562H189.766C191.505 31.1562 192.901 31.4167 193.953 31.9375C195.016 32.4583 195.786 33.1927 196.266 34.1406C196.755 35.0781 197 36.1771 197 37.4375C197 38.75 196.766 39.9062 196.297 40.9062C195.839 41.8958 195.177 42.7292 194.312 43.4062C193.448 44.0729 192.401 44.5781 191.172 44.9219C189.953 45.2552 188.583 45.4219 187.062 45.4219H184.688L182.875 54H179.188ZM185.359 42.3281H187.453C188.641 42.3281 189.667 42.151 190.531 41.7969C191.396 41.4323 192.062 40.8958 192.531 40.1875C193.01 39.4688 193.25 38.5885 193.25 37.5469C193.25 36.4115 192.938 35.5833 192.312 35.0625C191.688 34.5312 190.745 34.2656 189.484 34.2656H187.062L185.359 42.3281ZM207.5 54.3125C205.656 54.3125 204.104 53.9531 202.844 53.2344C201.594 52.5052 200.646 51.4792 200 50.1562C199.365 48.8333 199.047 47.2865 199.047 45.5156C199.047 44.2656 199.156 43.0417 199.375 41.8438C199.604 40.6354 199.938 39.4844 200.375 38.3906C200.812 37.2969 201.359 36.2865 202.016 35.3594C202.682 34.4323 203.453 33.6302 204.328 32.9531C205.203 32.2656 206.182 31.7344 207.266 31.3594C208.359 30.9844 209.552 30.7969 210.844 30.7969C213.51 30.7969 215.552 31.5833 216.969 33.1562C218.396 34.7292 219.109 36.8646 219.109 39.5625C219.109 40.8125 219.005 42.0469 218.797 43.2656C218.599 44.474 218.286 45.6302 217.859 46.7344C217.443 47.8281 216.917 48.8385 216.281 49.7656C215.646 50.6823 214.896 51.4792 214.031 52.1562C213.177 52.8333 212.203 53.3646 211.109 53.75C210.026 54.125 208.823 54.3125 207.5 54.3125ZM207.719 51.1094C208.479 51.1094 209.193 50.974 209.859 50.7031C210.526 50.4323 211.135 50.0521 211.688 49.5625C212.25 49.0625 212.75 48.4635 213.188 47.7656C213.635 47.0677 214.01 46.2917 214.312 45.4375C214.625 44.5833 214.865 43.6667 215.031 42.6875C215.198 41.6979 215.281 40.6667 215.281 39.5938C215.281 37.8542 214.87 36.4844 214.047 35.4844C213.234 34.4844 212.073 33.9844 210.562 33.9844C209.781 33.9844 209.047 34.125 208.359 34.4062C207.682 34.6771 207.057 35.0729 206.484 35.5938C205.911 36.1042 205.401 36.7135 204.953 37.4219C204.516 38.1198 204.141 38.8958 203.828 39.75C203.516 40.6042 203.276 41.5156 203.109 42.4844C202.953 43.4427 202.875 44.4427 202.875 45.4844C202.875 46.6719 203.062 47.6875 203.438 48.5312C203.823 49.375 204.375 50.0156 205.094 50.4531C205.823 50.8906 206.698 51.1094 207.719 51.1094ZM221.219 54L226.047 31.1562H232.328C233.766 31.1562 235.005 31.3333 236.047 31.6875C237.089 32.0417 237.891 32.5938 238.453 33.3438C239.026 34.0938 239.312 35.0729 239.312 36.2812C239.312 37.3125 239.104 38.2292 238.688 39.0312C238.281 39.8229 237.698 40.4792 236.938 41C236.188 41.5104 235.286 41.8698 234.234 42.0781V42.2188C235.286 42.5 236.141 43.0208 236.797 43.7812C237.453 44.5312 237.781 45.5104 237.781 46.7188C237.781 48.3646 237.391 49.7292 236.609 50.8125C235.839 51.8854 234.781 52.6875 233.438 53.2188C232.104 53.7396 230.583 54 228.875 54H221.219ZM225.578 50.8594H229.078C230.078 50.8594 230.943 50.7031 231.672 50.3906C232.411 50.0781 232.979 49.6146 233.375 49C233.781 48.3854 233.984 47.6302 233.984 46.7344C233.984 45.7865 233.688 45.026 233.094 44.4531C232.51 43.8802 231.573 43.5938 230.281 43.5938H227.125L225.578 50.8594ZM227.75 40.5781H230.875C231.76 40.5781 232.547 40.4531 233.234 40.2031C233.932 39.9427 234.479 39.5469 234.875 39.0156C235.281 38.474 235.484 37.7865 235.484 36.9531C235.484 36.0781 235.203 35.4115 234.641 34.9531C234.089 34.4948 233.203 34.2656 231.984 34.2656H229.094L227.75 40.5781ZM237.797 54L250.047 31.1562H254.344L256.938 54H253.312L252.672 47.6406H245.031L241.75 54H237.797ZM246.641 44.4219H252.422L251.906 38.8125C251.854 38.1146 251.797 37.3802 251.734 36.6094C251.672 35.8281 251.641 35.0885 251.641 34.3906H251.547C251.286 35.0677 250.984 35.7708 250.641 36.5C250.297 37.2188 249.927 37.9583 249.531 38.7188L246.641 44.4219ZM263.234 54L267.391 34.3438H261.453L262.125 31.1562H277.719L277.062 34.3438H271.109L266.953 54H263.234ZM276.281 54L281.109 31.1562H284.812L282.844 40.3906H284.531C286.302 40.3906 287.719 40.651 288.781 41.1719C289.844 41.6823 290.609 42.3906 291.078 43.2969C291.557 44.2031 291.797 45.2396 291.797 46.4062C291.797 47.6979 291.578 48.8177 291.141 49.7656C290.703 50.7135 290.078 51.5 289.266 52.125C288.453 52.75 287.474 53.2188 286.328 53.5312C285.193 53.8438 283.922 54 282.516 54H276.281ZM280.641 50.875H282.859C283.766 50.875 284.542 50.776 285.188 50.5781C285.833 50.3802 286.365 50.099 286.781 49.7344C287.208 49.3594 287.521 48.9115 287.719 48.3906C287.927 47.8698 288.031 47.2812 288.031 46.625C288.031 45.5312 287.719 44.7448 287.094 44.2656C286.479 43.776 285.594 43.5312 284.438 43.5312H282.203L280.641 50.875Z" fill="white"/>
<defs>
<linearGradient id="paint0_linear_22_687" x1="165" y1="0" x2="165" y2="84.1463" gradientUnits="userSpaceOnUse">
<stop stop-color="#CD06FF"/>
<stop offset="1" stop-color="#00D7D7"/>
</linearGradient>
</defs>
</svg>
