<svg width="111" height="111" viewBox="0 0 111 111" fill="none" xmlns="http://www.w3.org/2000/svg">
<path d="M38.1562 107.531H27.75V111H38.1562V107.531Z" fill="#2F3148"/>
<path d="M83.3097 107.531H72.9033V111H83.3097V107.531Z" fill="#2F3148"/>
<path d="M60.7033 107.531H50.2971V111H60.7033V107.531Z" fill="#2F3148"/>
<path d="M83.2502 57.2342H90.1875C93.0567 57.2342 95.3908 54.9001 95.3908 52.0311C95.3908 49.162 93.0567 46.8278 90.1875 46.8278H83.2502C80.3811 46.8278 78.0469 49.162 78.0469 52.0311V65.906H74.5783V9.65445C74.5783 4.33101 70.247 0 64.9236 0H46.0764C40.753 0 36.422 4.33101 36.422 9.65445V65.906H32.9531V52.0311C32.9531 49.162 30.6189 46.8278 27.75 46.8278H20.8125C17.9435 46.8278 15.6094 49.162 15.6094 52.0311C15.6094 54.9001 17.9435 57.2342 20.8125 57.2342H27.75C28.3581 57.2342 28.9415 57.1283 29.4844 56.9358V65.906H28.6173C24.3137 65.906 20.8127 69.4074 20.8127 73.7108C20.8127 78.0142 24.3137 81.5154 28.6173 81.5154H47.0028C47.6943 84.9083 50.3728 87.587 53.7659 88.2786V97.1247H31.1612V105.797H34.6298V100.594H53.7659V105.797H57.2345V100.594H76.3127V105.797H79.7816V97.1247H57.2348V88.2786C60.6276 87.587 63.3063 84.9085 63.9977 81.5154H82.3831C86.6865 81.5154 90.188 78.0142 90.188 73.7108C90.188 69.4074 86.6865 65.906 82.3831 65.906H81.516V56.9358C82.0587 57.1286 82.6421 57.2342 83.2502 57.2342ZM39.8906 9.65445C39.8906 6.24348 42.6657 3.46865 46.0764 3.46865H64.9236C68.3343 3.46865 71.1094 6.24371 71.1094 9.65445V65.906H39.8906V9.65445ZM27.75 53.7653H20.8125C19.856 53.7653 19.078 52.9876 19.078 52.0311C19.078 51.0747 19.856 50.2967 20.8125 50.2967H27.75C28.7065 50.2967 29.4844 51.0747 29.4844 52.0311C29.4844 52.9876 28.7065 53.7653 27.75 53.7653ZM55.5001 84.9841C53.239 84.9841 51.3112 83.534 50.5952 81.5154H60.4048C59.689 83.5342 57.7612 84.9841 55.5001 84.9841ZM82.3829 69.3751C84.7738 69.3748 86.7189 71.3199 86.7189 73.711C86.7189 76.1017 84.7738 78.0468 82.3829 78.0468H28.6173C26.2266 78.0468 24.2813 76.1017 24.2813 73.711C24.2813 71.3201 26.2266 69.3751 28.6173 69.3751H36.4222H74.5783H82.3829ZM81.5158 52.0313C81.5158 51.0749 82.2937 50.2969 83.2502 50.2969H90.1875C91.144 50.2969 91.922 51.0749 91.922 52.0313C91.922 52.9878 91.144 53.7656 90.1875 53.7656H83.2502C82.294 53.7656 81.5158 52.9878 81.5158 52.0313Z" fill="#2F3148"/>
<path d="M65.9063 15.609H45.0938V19.0779H65.9063V15.609Z" fill="#2F3148"/>
<path d="M65.9063 39.8907H45.0938V43.3596H65.9063V39.8907Z" fill="#2F3148"/>
</svg>
